<svg width="132" height="152" viewBox="0 0 132 152" fill="none" xmlns="http://www.w3.org/2000/svg">
<path d="M130.871 24H128.48V9.5625L126.055 11.0508V8.57812L128.48 6.96094H130.871V24Z" fill="white"/>
<path d="M114 48C114 60.7025 103.255 71 90 71" stroke="#D9D9D9" stroke-width="14"/>
<path d="M30 24C17.2975 24 7 13.2548 7 0" stroke="#D9D9D9" stroke-width="14"/>
<path d="M91 24C103.703 24 114 34.7452 114 48" stroke="#D9D9D9" stroke-width="14"/>
<rect x="38" y="31" width="14" height="87" fill="#ACACAC"/>
<rect x="69" y="31" width="14" height="87" fill="#ACACAC"/>
<rect x="28" y="31" width="14" height="63" transform="rotate(-90 28 31)" fill="#D9D9D9"/>
<path d="M29.3398 137.707H34.7891C35.2422 137.707 35.6367 137.605 35.9727 137.402C36.3164 137.191 36.582 136.895 36.7695 136.512C36.9648 136.129 37.0625 135.688 37.0625 135.188C37.0625 134.68 36.9688 134.234 36.7812 133.852C36.5938 133.469 36.3281 133.172 35.9844 132.961C35.6406 132.75 35.2422 132.645 34.7891 132.645H29.3398V129.961H34.707C35.7461 129.961 36.6602 130.18 37.4492 130.617C38.2383 131.047 38.8516 131.656 39.2891 132.445C39.7266 133.234 39.9453 134.148 39.9453 135.188C39.9453 136.227 39.7266 137.141 39.2891 137.93C38.8516 138.711 38.2383 139.316 37.4492 139.746C36.6602 140.176 35.7461 140.391 34.707 140.391H29.3398V137.707ZM27.9922 129.961H30.793V147H27.9922V129.961ZM45.4531 147H42.5938V129.961H45.4531V147ZM55.0742 147.176C53.8633 147.176 52.7969 146.918 51.875 146.402C50.9531 145.879 50.2383 145.145 49.7305 144.199C49.2227 143.246 48.9688 142.145 48.9688 140.895V136.066C48.9688 134.816 49.2227 133.719 49.7305 132.773C50.2383 131.82 50.9531 131.086 51.875 130.57C52.7969 130.047 53.8633 129.785 55.0742 129.785C56.2852 129.785 57.3516 130.047 58.2734 130.57C59.1953 131.086 59.9102 131.82 60.418 132.773C60.9258 133.719 61.1797 134.816 61.1797 136.066V140.895C61.1797 142.145 60.9258 143.246 60.418 144.199C59.9102 145.145 59.1953 145.879 58.2734 146.402C57.3516 146.918 56.2852 147.176 55.0742 147.176ZM55.0742 144.398C55.7148 144.398 56.2773 144.258 56.7617 143.977C57.2539 143.695 57.6328 143.297 57.8984 142.781C58.1641 142.258 58.2969 141.656 58.2969 140.977V135.984C58.2969 135.305 58.1641 134.707 57.8984 134.191C57.6328 133.668 57.2539 133.266 56.7617 132.984C56.2773 132.703 55.7148 132.562 55.0742 132.562C54.4336 132.562 53.8672 132.703 53.375 132.984C52.8906 133.266 52.5156 133.668 52.25 134.191C51.9844 134.707 51.8516 135.305 51.8516 135.984V140.977C51.8516 141.656 51.9844 142.258 52.25 142.781C52.5156 143.297 52.8906 143.695 53.375 143.977C53.8672 144.258 54.4336 144.398 55.0742 144.398ZM64.5781 129.961H67.625L74.9609 143.074L74.6797 143.379V129.961H77.3984V146.988H74.3281L67.0156 134.074L67.2969 133.77V146.988H64.5781V129.961ZM81.3828 129.961H84.1836V147H81.3828V129.961ZM82.543 144.316H92.5625V147H82.543V144.316ZM82.543 137.203H91.2734V139.875H82.543V137.203ZM82.543 129.961H92.5625V132.645H82.543V129.961Z" fill="white"/>
</svg>
