<svg xmlns="http://www.w3.org/2000/svg" xmlns:xlink="http://www.w3.org/1999/xlink" style="margin:auto;/* background:#ffffff; */display:block;z-index:1;position:relative" width="1910" height="933" preserveAspectRatio="xMidYMid" viewBox="0 0 1910 933">
<g transform="translate(955,466.5) scale(1,1) translate(-955,-466.5)"><g transform="translate(1483.2186257731491,56.7716346329853) scale(100)" opacity="0.4">
  <path d="M6.48445 0 C6.48445 1.5375499999999998 6.731836219027941 2.111217640411236 5.963061219027941 3.4427749999999993 S4.573782359588764 4.846923429570003 3.242225000000001 5.615698429570003 S1.5375500000000002 6.885549999999999 4.2161833839345286e-16 6.885549999999999 S-1.910667640411235 6.384473429570003 -3.2422249999999986 5.615698429570004 S-5.194286219027939 4.774332359588765 -5.9630612190279395 3.442775000000002 S-6.48445 1.5375500000000006 -6.48445 7.941160936731055e-16 S-6.731836219027942 -2.111217640411234 -5.963061219027942 -3.442774999999998 S-4.5737823595887654 -4.846923429570001 -3.2422250000000026 -5.615698429570002 S-1.537550000000001 -6.885549999999999 -1.2648550151803586e-15 -6.885549999999999 S1.9106676404112315 -6.384473429570004 3.2422249999999955 -5.615698429570005 S5.194286219027939 -4.774332359588766 5.9630612190279395 -3.442775000000003 S6.48445 -1.5375500000000013 6.48445 -1.588232187346211e-15" fill="#9c27b0" stroke-width="0">
    <animateTransform attributeName="transform" type="rotate" dur="10s" repeatCount="indefinite" values="0;60"></animateTransform>
  </path>
</g><g transform="translate(1588.8623509277788,-25.174038440417633) scale(100)" opacity="0.4">
  <path d="M7.781339999999998 0 C7.781339999999998 1.8450599999999995 8.078203462833528 2.5334611684934822 7.155673462833529 4.131329999999998 S5.488538831506516 5.816308115484002 3.89067 6.738838115484002 S1.84506 8.262659999999999 5.059420060721433e-16 8.262659999999999 S-2.2928011684934813 7.661368115484002 -3.8906699999999974 6.738838115484003 S-6.233143462833527 5.729198831506517 -7.155673462833527 4.131330000000002 S-7.781339999999998 1.8450600000000004 -7.781339999999998 9.529393124077263e-16 S-8.078203462833528 -2.5334611684934805 -7.15567346283353 -4.131329999999997 S-5.488538831506519 -5.816308115484 -3.8906700000000027 -6.738838115484001 S-1.845060000000001 -8.262659999999999 -1.51782601821643e-15 -8.262659999999999 S2.2928011684934773 -7.661368115484004 3.890669999999994 -6.738838115484006 S6.233143462833526 -5.729198831506518 7.155673462833526 -4.131330000000003 S7.7813399999999975 -1.8450600000000015 7.781339999999998 -1.9058786248154527e-15" fill="#9c27b0" stroke-width="0">
    <animateTransform attributeName="transform" type="rotate" dur="5s" repeatCount="indefinite" values="0;60"></animateTransform>
  </path>
</g><g transform="translate(1842.4072912988904,-221.8436538165846) scale(100)" opacity="0.4">
  <path d="M10.893875999999999 0 C10.893875999999999 2.5830839999999995 11.30948484796694 3.5468456358908758 10.01794284796694 5.783861999999998 S7.683954364109123 8.142831361677604 5.446938 9.434373361677604 S2.5830840000000004 11.567723999999998 7.083188085010007e-16 11.567723999999998 S-3.209921635890874 10.725915361677604 -5.446937999999997 9.434373361677604 S-8.72640084796694 8.020878364109125 -10.017942847966939 5.783862000000003 S-10.893875999999999 2.583084000000001 -10.893875999999999 1.3341150373708171e-15 S-11.309484847966942 -3.5468456358908727 -10.017942847966943 -5.783861999999996 S-7.683954364109126 -8.142831361677601 -5.446938000000004 -9.434373361677602 S-2.5830840000000017 -11.567723999999998 -2.124956425503002e-15 -11.567723999999998 S3.209921635890869 -10.725915361677606 5.446937999999992 -9.434373361677608 S8.726400847966936 -8.020878364109127 10.017942847966937 -5.7838620000000045 S10.893875999999999 -2.583084000000002 10.893875999999999 -2.6682300747416342e-15" fill="#9c27b0" stroke-width="0">
    <animateTransform attributeName="transform" type="rotate" dur="3.3333333333333335s" repeatCount="indefinite" values="0;60"></animateTransform>
  </path>
</g></g>
</svg>