<svg xmlns="http://www.w3.org/2000/svg" xmlns:xlink="http://www.w3.org/1999/xlink" style="margin:auto;/* background:#f1f2f3; */display:block;z-index:1;position:relative" width="2560" height="827" preserveAspectRatio="xMidYMid" viewBox="0 0 2560 827">
<g transform="translate(1280,413.5) scale(1,1) translate(-1280,-413.5)"><path id="path0" d="M 902.2503763675893 97.92306534770479
c 0 20.283021358377525 -4.962866928113649 5.825974219959503 -10.788841148073152 5.825974219959503
S 880.672694071443 118.20608670608232 880.672694071443 97.92306534770479
s 4.962866928113649 -5.825974219959503 10.788841148073152 -5.825974219959503
S 902.2503763675893 77.64004398932727 902.2503763675893 97.92306534770479
z" fill="none" stroke="none"></path>
<circle cx="0" cy="0" r="7.594099545349843" fill="#d650ed">
  <animateMotion begin="-5.892023827251316s" dur="10s" repeatCount="indefinite">
    <mpath xlink:href="#path0"></mpath>
  </animateMotion>
</circle><path id="path1" d="M 2316.9985132791635 766.1561473866457
c 0 19.88525553838412 -4.865541248753561 5.711722335493311 -10.577263584246872 5.711722335493311
S 2295.84398611067 786.0414029250298 2295.84398611067 766.1561473866457
s 4.865541248753561 -5.711722335493311 10.577263584246872 -5.711722335493311
S 2316.9985132791635 746.2708918482615 2316.9985132791635 766.1561473866457
z" fill="none" stroke="none"></path>
<circle cx="0" cy="0" r="4.207725735820895" fill="#890d9f">
  <animateMotion begin="-0.1715243460536109s" dur="10s" repeatCount="indefinite">
    <mpath xlink:href="#path1"></mpath>
  </animateMotion>
</circle><path id="path2" d="M 970.8099880366428 64.22208525929922
c 0 23.82479353476537 -5.82947075850642 6.843291759985798 -12.672762518492217 6.843291759985798
S 945.4644629996585 88.04687879406458 945.4644629996585 64.22208525929922
s 5.82947075850642 -6.843291759985798 12.672762518492217 -6.843291759985798
S 970.8099880366428 40.39729172453385 970.8099880366428 64.22208525929922
z" fill="none" stroke="none"></path>
<circle cx="0" cy="0" r="7.4703879667814785" fill="#af4ebf">
  <animateMotion begin="-8.487373102634603s" dur="10s" repeatCount="indefinite">
    <mpath xlink:href="#path2"></mpath>
  </animateMotion>
</circle><path id="path3" d="M 556.5991973985548 264.0296054331479
c 0 29.916693353534956 -7.320041990758552 8.593092771760041 -15.913134762518592 8.593092771760041
S 524.7729278735177 293.94629878668286 524.7729278735177 264.0296054331479
s 7.320041990758552 -8.593092771760041 15.913134762518592 -8.593092771760041
S 556.5991973985548 234.11291207961293 556.5991973985548 264.0296054331479
z" fill="none" stroke="none"></path>
<circle cx="0" cy="0" r="5.260274331495213" fill="#af4ebf">
  <animateMotion begin="-4.538216669105455s" dur="10s" repeatCount="indefinite">
    <mpath xlink:href="#path3"></mpath>
  </animateMotion>
</circle><path id="path4" d="M 944.7638075920227 18.44378937955834
c 0 28.851023534043783 -7.059292992372415 8.28699612148066 -15.346289113853075 8.28699612148066
S 914.0712293643164 47.29481291360212 914.0712293643164 18.44378937955834
s 7.059292992372415 -8.28699612148066 15.346289113853075 -8.28699612148066
S 944.7638075920227 -10.407234154485444 944.7638075920227 18.44378937955834
z" fill="none" stroke="none"></path>
<circle cx="0" cy="0" r="6.439903790345483" fill="#890d9f">
  <animateMotion begin="-4.952018418122954s" dur="10s" repeatCount="indefinite">
    <mpath xlink:href="#path4"></mpath>
  </animateMotion>
</circle><path id="path5" d="M 920.499392243387 430.5651404007876
c 0 22.148012130178078 -5.4191944573839965 6.361663058668171 -11.780857516052167 6.361663058668171
S 896.9376772112827 452.71315253096566 896.9376772112827 430.5651404007876
s 5.4191944573839965 -6.361663058668171 11.780857516052167 -6.361663058668171
S 920.499392243387 408.4171282706095 920.499392243387 430.5651404007876
z" fill="none" stroke="none"></path>
<circle cx="0" cy="0" r="4.086995198668216" fill="#890d9f">
  <animateMotion begin="-4.297036759454227s" dur="10s" repeatCount="indefinite">
    <mpath xlink:href="#path5"></mpath>
  </animateMotion>
</circle><path id="path6" d="M 1322.3572985494848 383.0538819377035
c 0 24.45186114773928 -5.982902195723439 7.0234069254144735 -13.006309121137914 7.0234069254144735
S 1296.3446803072088 407.5057430854428 1296.3446803072088 383.0538819377035
s 5.982902195723439 -7.0234069254144735 13.006309121137914 -7.0234069254144735
S 1322.3572985494848 358.60202078996423 1322.3572985494848 383.0538819377035
z" fill="none" stroke="none"></path>
<circle cx="0" cy="0" r="4.935198713741106" fill="#890d9f">
  <animateMotion begin="-2.3916051245314995s" dur="10s" repeatCount="indefinite">
    <mpath xlink:href="#path6"></mpath>
  </animateMotion>
</circle><path id="path7" d="M 1701.6306271339226 564.8219528039708
c 0 31.68851113547525 -7.75357187357373 9.10201915593438 -16.855591029508112 9.10201915593438
S 1667.9194450749064 596.510463939446 1667.9194450749064 564.8219528039708
s 7.75357187357373 -9.10201915593438 16.855591029508112 -9.10201915593438
S 1701.6306271339226 533.1334416684956 1701.6306271339226 564.8219528039708
z" fill="none" stroke="none"></path>
<circle cx="0" cy="0" r="7.579806819522989" fill="#d650ed">
  <animateMotion begin="-2.9880288778597452s" dur="10s" repeatCount="indefinite">
    <mpath xlink:href="#path7"></mpath>
  </animateMotion>
</circle><path id="path8" d="M 184.3179991821382 677.7126914744289
c 0 27.31857584310217 -6.68433238714202 7.846824976210199 -14.531157363352218 7.846824976210199
S 155.2556844554338 705.031267317531 155.2556844554338 677.7126914744289
s 6.68433238714202 -7.846824976210199 14.531157363352218 -7.846824976210199
S 184.3179991821382 650.3941156313267 184.3179991821382 677.7126914744289
z" fill="none" stroke="none"></path>
<circle cx="0" cy="0" r="7.001254616724836" fill="#af4ebf">
  <animateMotion begin="-0.9241674317401882s" dur="10s" repeatCount="indefinite">
    <mpath xlink:href="#path8"></mpath>
  </animateMotion>
</circle><path id="path9" d="M 1297.4710139410743 393.4072063048942
c 0 30.595174187183076 -7.486053258566072 8.78797556440365 -16.274028822969722 8.78797556440365
S 1264.9229562951348 424.0023804920773 1264.9229562951348 393.4072063048942
s 7.486053258566072 -8.78797556440365 16.274028822969722 -8.78797556440365
S 1297.4710139410743 362.8120321177111 1297.4710139410743 393.4072063048942
z" fill="none" stroke="none"></path>
<circle cx="0" cy="0" r="4.1224433669185325" fill="#9c27b0">
  <animateMotion begin="-2.4022850619609892s" dur="10s" repeatCount="indefinite">
    <mpath xlink:href="#path9"></mpath>
  </animateMotion>
</circle><path id="path10" d="M 1750.4877213313748 718.7892810993961
c 0 36.84800889723072 -9.016002176981983 10.584002555587547 -19.60000473256953 10.584002555587547
S 1711.287711866236 755.6372899966268 1711.287711866236 718.7892810993961
s 9.016002176981983 -10.584002555587547 19.60000473256953 -10.584002555587547
S 1750.4877213313748 681.9412722021655 1750.4877213313748 718.7892810993961
z" fill="none" stroke="none"></path>
<circle cx="0" cy="0" r="5.7263910871859895" fill="#af4ebf">
  <animateMotion begin="-3.572720484372085s" dur="10s" repeatCount="indefinite">
    <mpath xlink:href="#path10"></mpath>
  </animateMotion>
</circle><path id="path11" d="M 469.2600963007569 124.61191735901683
c 0 28.89418603943309 -7.069854030925118 8.299393862390357 -15.369247893315475 8.299393862390357
S 438.5216005141259 153.5061033984499 438.5216005141259 124.61191735901683
s 7.069854030925118 -8.299393862390357 15.369247893315475 -8.299393862390357
S 469.2600963007569 95.71773131958373 469.2600963007569 124.61191735901683
z" fill="none" stroke="none"></path>
<circle cx="0" cy="0" r="6.121481647395685" fill="#d650ed">
  <animateMotion begin="-4.129759522617855s" dur="10s" repeatCount="indefinite">
    <mpath xlink:href="#path11"></mpath>
  </animateMotion>
</circle><path id="path12" d="M 1037.2362096618995 356.2130571589029
c 0 23.08606991800454 -5.648719235256429 6.631105189214071 -12.279824424470501 6.631105189214071
S 1012.6765608129585 379.29912707690744 1012.6765608129585 356.2130571589029
s 5.648719235256429 -6.631105189214071 12.279824424470501 -6.631105189214071
S 1037.2362096618995 333.1269872408984 1037.2362096618995 356.2130571589029
z" fill="none" stroke="none"></path>
<circle cx="0" cy="0" r="5.2871244821225885" fill="#af4ebf">
  <animateMotion begin="-4.805535615582741s" dur="10s" repeatCount="indefinite">
    <mpath xlink:href="#path12"></mpath>
  </animateMotion>
</circle><path id="path13" d="M 481.9989389385855 234.53317631735592
c 0 28.934732354492816 -7.079774937801433 8.311040144375596 -15.39081508217703 8.311040144375596
S 451.21730877423147 263.46790867184876 451.21730877423147 234.53317631735592
s 7.079774937801433 -8.311040144375596 15.39081508217703 -8.311040144375596
S 481.9989389385855 205.59844396286312 481.9989389385855 234.53317631735592
z" fill="none" stroke="none"></path>
<circle cx="0" cy="0" r="7.613132378257635" fill="#d650ed">
  <animateMotion begin="-0.041976462527124614s" dur="10s" repeatCount="indefinite">
    <mpath xlink:href="#path13"></mpath>
  </animateMotion>
</circle><path id="path14" d="M 242.39979187468762 77.76630818400905
c 0 35.12340354442311 -8.594024271507783 10.088637188291745 -18.682661459799526 10.088637188291745
S 205.03446895508856 112.88971172843216 205.03446895508856 77.76630818400905
s 8.594024271507783 -10.088637188291745 18.682661459799526 -10.088637188291745
S 242.39979187468762 42.642904639585936 242.39979187468762 77.76630818400905
z" fill="none" stroke="none"></path>
<circle cx="0" cy="0" r="5.563302808980273" fill="#a93cbb">
  <animateMotion begin="-4.498626517104503s" dur="10s" repeatCount="indefinite">
    <mpath xlink:href="#path14"></mpath>
  </animateMotion>
</circle><path id="path15" d="M 2500.5304761598813 13.564006097594033
c 0 31.897435276757378 -7.804691610270422 9.1620292816218 -16.966720891892223 9.1620292816218
S 2466.597034376097 45.46144137435141 2466.597034376097 13.564006097594033
s 7.804691610270422 -9.1620292816218 16.966720891892223 -9.1620292816218
S 2500.5304761598813 -18.333429179163346 2500.5304761598813 13.564006097594033
z" fill="none" stroke="none"></path>
<circle cx="0" cy="0" r="4.520414838556617" fill="#d650ed">
  <animateMotion begin="-2.093248141660038s" dur="10s" repeatCount="indefinite">
    <mpath xlink:href="#path15"></mpath>
  </animateMotion>
</circle><path id="path16" d="M 2438.6505346565727 275.5014772695305
c 0 35.02055735670661 -8.568859778768637 10.05909626203275 -18.627956040801386 10.05909626203275
S 2401.3946225749696 310.5220346262371 2401.3946225749696 275.5014772695305
s 8.568859778768637 -10.05909626203275 18.627956040801386 -10.05909626203275
S 2438.6505346565727 240.48091991282388 2438.6505346565727 275.5014772695305
z" fill="none" stroke="none"></path>
<circle cx="0" cy="0" r="7.377118055199205" fill="#9c27b0">
  <animateMotion begin="-5.85020566322574s" dur="10s" repeatCount="indefinite">
    <mpath xlink:href="#path16"></mpath>
  </animateMotion>
</circle><path id="path17" d="M 1732.942999551652 538.1090269421292
c 0 19.018385175888618 -4.653434670696151 5.462727656904178 -10.116162327600328 5.462727656904178
S 1712.7106748964516 557.1274121180178 1712.7106748964516 538.1090269421292
s 4.653434670696151 -5.462727656904178 10.116162327600328 -5.462727656904178
S 1732.942999551652 519.0906417662405 1732.942999551652 538.1090269421292
z" fill="none" stroke="none"></path>
<circle cx="0" cy="0" r="4.8983739463813265" fill="#d650ed">
  <animateMotion begin="-5.5560690410262055s" dur="10s" repeatCount="indefinite">
    <mpath xlink:href="#path17"></mpath>
  </animateMotion>
</circle><path id="path18" d="M 1098.8555143701863 491.50951043668493
c 0 25.17642308650626 -6.160188627549403 7.231525780166692 -13.391714407716096 7.231525780166692
S 1072.072085554754 516.6859335231912 1072.072085554754 491.50951043668493
s 6.160188627549403 -7.231525780166692 13.391714407716096 -7.231525780166692
S 1098.8555143701863 466.3330873501787 1098.8555143701863 491.50951043668493
z" fill="none" stroke="none"></path>
<circle cx="0" cy="0" r="4.917557093096882" fill="#9c27b0">
  <animateMotion begin="-1.8595717641163834s" dur="10s" repeatCount="indefinite">
    <mpath xlink:href="#path18"></mpath>
  </animateMotion>
</circle><path id="path19" d="M 436.99866620757456 764.4363824717103
c 0 32.52272723652511 -7.957688579149759 9.341634419001892 -17.299322998151652 9.341634419001892
S 402.4000202112713 796.9591097082355 402.4000202112713 764.4363824717103
s 7.957688579149759 -9.341634419001892 17.299322998151652 -9.341634419001892
S 436.99866620757456 731.9136552351852 436.99866620757456 764.4363824717103
z" fill="none" stroke="none"></path>
<circle cx="0" cy="0" r="7.930280489844281" fill="#890d9f">
  <animateMotion begin="-9.967264200239676s" dur="10s" repeatCount="indefinite">
    <mpath xlink:href="#path19"></mpath>
  </animateMotion>
</circle><path id="path20" d="M 642.0010365482615 87.23722903054333
c 0 20.633706044438668 -5.048672755554142 5.926702799998341 -10.975375555552482 5.926702799998341
S 620.0502854371566 107.870935074982 620.0502854371566 87.23722903054333
s 5.048672755554142 -5.926702799998341 10.975375555552482 -5.926702799998341
S 642.0010365482615 66.60352298610466 642.0010365482615 87.23722903054333
z" fill="none" stroke="none"></path>
<circle cx="0" cy="0" r="6.825614761557897" fill="#a93cbb">
  <animateMotion begin="-5.715361488367414s" dur="10s" repeatCount="indefinite">
    <mpath xlink:href="#path20"></mpath>
  </animateMotion>
</circle><path id="path21" d="M 2252.4286215062716 63.118344434725046
c 0 32.84814374035616 -8.037311766257357 9.43510511691081 -17.472416883168165 9.43510511691081
S 2217.4837877399355 95.9664881750812 2217.4837877399355 63.118344434725046
s 8.037311766257357 -9.43510511691081 17.472416883168165 -9.43510511691081
S 2252.4286215062716 30.27020069436889 2252.4286215062716 63.118344434725046
z" fill="none" stroke="none"></path>
<circle cx="0" cy="0" r="6.728030408431187" fill="#a93cbb">
  <animateMotion begin="-9.595690984728176s" dur="10s" repeatCount="indefinite">
    <mpath xlink:href="#path21"></mpath>
  </animateMotion>
</circle><path id="path22" d="M 2544.5847801111954 146.79373336110947
c 0 30.222727242441355 -7.394922623150543 8.6809961228289 -16.075918745979443 8.6809961228289
S 2512.4329426192367 177.01646060355083 2512.4329426192367 146.79373336110947
s 7.394922623150543 -8.6809961228289 16.075918745979443 -8.6809961228289
S 2544.5847801111954 116.57100611866812 2544.5847801111954 146.79373336110947
z" fill="none" stroke="none"></path>
<circle cx="0" cy="0" r="4.049624167912785" fill="#a93cbb">
  <animateMotion begin="-2.778701291006258s" dur="10s" repeatCount="indefinite">
    <mpath xlink:href="#path22"></mpath>
  </animateMotion>
</circle><path id="path23" d="M 771.107065759101 141.54733896408936
c 0 24.560688828906027 -6.009530245370623 7.0546659402176894 -13.064196185588312 7.0546659402176894
S 744.9786733879243 166.1080277929954 744.9786733879243 141.54733896408936
s 6.009530245370623 -7.0546659402176894 13.064196185588312 -7.0546659402176894
S 771.107065759101 116.98665013518334 771.107065759101 141.54733896408936
z" fill="none" stroke="none"></path>
<circle cx="0" cy="0" r="4.667729561721492" fill="#af4ebf">
  <animateMotion begin="-2.5123871913647755s" dur="10s" repeatCount="indefinite">
    <mpath xlink:href="#path23"></mpath>
  </animateMotion>
</circle><path id="path24" d="M 780.8682678740547 67.40144846555921
c 0 34.04819346708213 -8.330940954711583 9.779800251183165 -18.110741205894747 9.779800251183165
S 744.6467854622651 101.44964193264134 744.6467854622651 67.40144846555921
s 8.330940954711583 -9.779800251183165 18.110741205894747 -9.779800251183165
S 780.8682678740547 33.353254998477084 780.8682678740547 67.40144846555921
z" fill="none" stroke="none"></path>
<circle cx="0" cy="0" r="7.233097849313421" fill="#890d9f">
  <animateMotion begin="-7.066407799199139s" dur="10s" repeatCount="indefinite">
    <mpath xlink:href="#path24"></mpath>
  </animateMotion>
</circle><path id="path25" d="M 1620.4626915425079 475.56905905919876
c 0 35.21801981036319 -8.61717505998248 10.115814200849002 -18.732989260831484 10.115814200849002
S 1582.9967130208447 510.7870788695619 1582.9967130208447 475.56905905919876
s 8.61717505998248 -10.115814200849002 18.732989260831484 -10.115814200849002
S 1620.4626915425079 440.3510392488356 1620.4626915425079 475.56905905919876
z" fill="none" stroke="none"></path>
<circle cx="0" cy="0" r="6.072150191644355" fill="#9c27b0">
  <animateMotion begin="-7.4222320931988905s" dur="10s" repeatCount="indefinite">
    <mpath xlink:href="#path25"></mpath>
  </animateMotion>
</circle><path id="path26" d="M 2458.11427904569 765.956633121716
c 0 28.084994677737484 -6.871860399871937 8.066966556371405 -14.938826956243343 8.066966556371405
S 2428.2366251332037 794.0416277994534 2428.2366251332037 765.956633121716
s 6.871860399871937 -8.066966556371405 14.938826956243343 -8.066966556371405
S 2458.11427904569 737.8716384439786 2458.11427904569 765.956633121716
z" fill="none" stroke="none"></path>
<circle cx="0" cy="0" r="6.406363248067652" fill="#a93cbb">
  <animateMotion begin="-8.34737516714802s" dur="10s" repeatCount="indefinite">
    <mpath xlink:href="#path26"></mpath>
  </animateMotion>
</circle><path id="path27" d="M 1972.9929134392448 797.9494841329412
c 0 27.50051297498498 -6.7288489194112175 7.899083514091431 -14.627932433502648 7.899083514091431
S 1943.7370485722397 825.4499971079262 1943.7370485722397 797.9494841329412
s 6.7288489194112175 -7.899083514091431 14.627932433502648 -7.899083514091431
S 1972.9929134392448 770.4489711579562 1972.9929134392448 797.9494841329412
z" fill="none" stroke="none"></path>
<circle cx="0" cy="0" r="6.074790488189808" fill="#a93cbb">
  <animateMotion begin="-6.113087686798053s" dur="10s" repeatCount="indefinite">
    <mpath xlink:href="#path27"></mpath>
  </animateMotion>
</circle><path id="path28" d="M 1068.3222848670978 374.0700306922805
c 0 33.873310646645514 -8.28815047737071 9.729567951696053 -18.01771842906676 9.729567951696053
S 1032.2868480089644 407.943341338926 1032.2868480089644 374.0700306922805
s 8.28815047737071 -9.729567951696053 18.01771842906676 -9.729567951696053
S 1068.3222848670978 340.196720045635 1068.3222848670978 374.0700306922805
z" fill="none" stroke="none"></path>
<circle cx="0" cy="0" r="7.68132850082318" fill="#af4ebf">
  <animateMotion begin="-4.363552875593744s" dur="10s" repeatCount="indefinite">
    <mpath xlink:href="#path28"></mpath>
  </animateMotion>
</circle><path id="path29" d="M 645.3228098720593 401.5635253258584
c 0 19.458696058380003 -4.761170312156808 5.589199931662341 -10.35037024381915 5.589199931662341
S 624.622069384421 421.0222213842384 624.622069384421 401.5635253258584
s 4.761170312156808 -5.589199931662341 10.35037024381915 -5.589199931662341
S 645.3228098720593 382.1048292674784 645.3228098720593 401.5635253258584
z" fill="none" stroke="none"></path>
<circle cx="0" cy="0" r="6.928686810268724" fill="#9c27b0">
  <animateMotion begin="-6.9647013457761675s" dur="10s" repeatCount="indefinite">
    <mpath xlink:href="#path29"></mpath>
  </animateMotion>
</circle><path id="path30" d="M 1253.702210399955 518.364535907896
c 0 27.34868192764394 -6.6916987695299 7.855472468578578 -14.54717123810848 7.855472468578578
S 1224.6078679237382 545.7132178355399 1224.6078679237382 518.364535907896
s 6.6916987695299 -7.855472468578578 14.54717123810848 -7.855472468578578
S 1253.702210399955 491.015853980252 1253.702210399955 518.364535907896
z" fill="none" stroke="none"></path>
<circle cx="0" cy="0" r="7.336804738581088" fill="#d650ed">
  <animateMotion begin="-2.858874293887592s" dur="10s" repeatCount="indefinite">
    <mpath xlink:href="#path30"></mpath>
  </animateMotion>
</circle><path id="path31" d="M 685.7270573307022 704.2752000986552
c 0 24.36194164047745 -5.960900614159376 6.997578981839268 -12.958479595998645 6.997578981839268
S 659.810098138705 728.6371417391326 659.810098138705 704.2752000986552
s 5.960900614159376 -6.997578981839268 12.958479595998645 -6.997578981839268
S 685.7270573307022 679.9132584581778 685.7270573307022 704.2752000986552
z" fill="none" stroke="none"></path>
<circle cx="0" cy="0" r="4.878699188659973" fill="#d650ed">
  <animateMotion begin="-7.077756138430205s" dur="10s" repeatCount="indefinite">
    <mpath xlink:href="#path31"></mpath>
  </animateMotion>
</circle><path id="path32" d="M 2334.795926104081 328.80849797914175
c 0 32.27426358208105 -7.896894280721957 9.270267199108387 -17.167161479830344 9.270267199108387
S 2300.4616031444207 361.0827615612228 2300.4616031444207 328.80849797914175
s 7.896894280721957 -9.270267199108387 17.167161479830344 -9.270267199108387
S 2334.795926104081 296.5342343970607 2334.795926104081 328.80849797914175
z" fill="none" stroke="none"></path>
<circle cx="0" cy="0" r="5.4687215821455375" fill="#af4ebf">
  <animateMotion begin="-4.294289204784658s" dur="10s" repeatCount="indefinite">
    <mpath xlink:href="#path32"></mpath>
  </animateMotion>
</circle><path id="path33" d="M 789.7568926858601 759.2207462384647
c 0 36.48040336064396 -8.92605614143416 10.478413731248798 -19.404469872682956 10.478413731248798
S 750.9479529404941 795.7011495991087 750.9479529404941 759.2207462384647
s 8.92605614143416 -10.478413731248798 19.404469872682956 -10.478413731248798
S 789.7568926858601 722.7403428778207 789.7568926858601 759.2207462384647
z" fill="none" stroke="none"></path>
<circle cx="0" cy="0" r="6.809257056860002" fill="#9c27b0">
  <animateMotion begin="-6.90707453000589s" dur="10s" repeatCount="indefinite">
    <mpath xlink:href="#path33"></mpath>
  </animateMotion>
</circle><path id="path34" d="M 318.18488166246107 53.31157502090796
c 0 29.01268933741718 -7.098849518729734 8.33343204372621 -15.432281562455945 8.33343204372621
S 287.32031853754916 82.32426435832514 287.32031853754916 53.31157502090796
s 7.098849518729734 -8.33343204372621 15.432281562455945 -8.33343204372621
S 318.18488166246107 24.29888568349078 318.18488166246107 53.31157502090796
z" fill="none" stroke="none"></path>
<circle cx="0" cy="0" r="6.929153005338583" fill="#af4ebf">
  <animateMotion begin="-6.582230011212367s" dur="10s" repeatCount="indefinite">
    <mpath xlink:href="#path34"></mpath>
  </animateMotion>
</circle><path id="path35" d="M 2347.7936292412983 780.9489115962302
c 0 33.73636265679355 -8.254641926662252 9.69023182695134 -17.944873753613592 9.69023182695134
S 2311.903881734071 814.6852742530237 2311.903881734071 780.9489115962302
s 8.254641926662252 -9.69023182695134 17.944873753613592 -9.69023182695134
S 2347.7936292412983 747.2125489394367 2347.7936292412983 780.9489115962302
z" fill="none" stroke="none"></path>
<circle cx="0" cy="0" r="5.504755421721357" fill="#a93cbb">
  <animateMotion begin="-1.0210812095546529s" dur="10s" repeatCount="indefinite">
    <mpath xlink:href="#path35"></mpath>
  </animateMotion>
</circle><path id="path36" d="M 645.8155716446453 453.91953085095435
c 0 34.27140669045204 -8.385556956174433 9.843914687683032 -18.229471643857465 9.843914687683032
S 609.3566283569304 488.19093754140636 609.3566283569304 453.91953085095435
s 8.385556956174433 -9.843914687683032 18.229471643857465 -9.843914687683032
S 645.8155716446453 419.64812416050233 645.8155716446453 453.91953085095435
z" fill="none" stroke="none"></path>
<circle cx="0" cy="0" r="5.026008838147738" fill="#890d9f">
  <animateMotion begin="-3.9008102657342714s" dur="10s" repeatCount="indefinite">
    <mpath xlink:href="#path36"></mpath>
  </animateMotion>
</circle><path id="path37" d="M 607.1538384152561 252.5390304576911
c 0 19.391101112816816 -4.744631123348795 5.569784362192065 -10.31441548554086 5.569784362192065
S 586.5250074441744 271.9301315705079 586.5250074441744 252.5390304576911
s 4.744631123348795 -5.569784362192065 10.31441548554086 -5.569784362192065
S 607.1538384152561 233.14792934487429 607.1538384152561 252.5390304576911
z" fill="none" stroke="none"></path>
<circle cx="0" cy="0" r="7.0071842838515614" fill="#af4ebf">
  <animateMotion begin="-9.772859272510546s" dur="10s" repeatCount="indefinite">
    <mpath xlink:href="#path37"></mpath>
  </animateMotion>
</circle><path id="path38" d="M 44.806327371797465 770.4198860597996
c 0 36.94458814356875 -9.039633269171077 10.61174340293996 -19.651376672111034 10.61174340293996
S 5.503574027575393 807.3644742033684 5.503574027575393 770.4198860597996
s 9.039633269171077 -10.61174340293996 19.651376672111034 -10.61174340293996
S 44.806327371797465 733.4752979162308 44.806327371797465 770.4198860597996
z" fill="none" stroke="none"></path>
<circle cx="0" cy="0" r="5.195007512748386" fill="#9c27b0">
  <animateMotion begin="-1.9623504572003525s" dur="10s" repeatCount="indefinite">
    <mpath xlink:href="#path38"></mpath>
  </animateMotion>
</circle><path id="path39" d="M 1081.5119302522032 620.9893685026501
c 0 36.39165059044662 -8.904340038088003 10.452920914277222 -19.357260952365223 10.452920914277222
S 1042.7974083474726 657.3810190930967 1042.7974083474726 620.9893685026501
s 8.904340038088003 -10.452920914277222 19.357260952365223 -10.452920914277222
S 1081.5119302522032 584.5977179122035 1081.5119302522032 620.9893685026501
z" fill="none" stroke="none"></path>
<circle cx="0" cy="0" r="6.6734986738380835" fill="#d650ed">
  <animateMotion begin="-0.304985850219357s" dur="10s" repeatCount="indefinite">
    <mpath xlink:href="#path39"></mpath>
  </animateMotion>
</circle><path id="path40" d="M 1716.3948249181606 598.7767449034798
c 0 28.722212776505692 -7.027775466591818 8.249997286868657 -15.277772753460475 8.249997286868657
S 1685.8392794112394 627.4989576799854 1685.8392794112394 598.7767449034798
s 7.027775466591818 -8.249997286868657 15.277772753460475 -8.249997286868657
S 1716.3948249181606 570.0545321269741 1716.3948249181606 598.7767449034798
z" fill="none" stroke="none"></path>
<circle cx="0" cy="0" r="4.776001630134757" fill="#d650ed">
  <animateMotion begin="-3.008723693290001s" dur="10s" repeatCount="indefinite">
    <mpath xlink:href="#path40"></mpath>
  </animateMotion>
</circle><path id="path41" d="M 1921.2671887483586 584.7341874629133
c 0 23.430771525285042 -5.733061117888893 6.730115225347832 -12.463176343236723 6.730115225347832
S 1896.3408360618853 608.1649589881984 1896.3408360618853 584.7341874629133
s 5.733061117888893 -6.730115225347832 12.463176343236723 -6.730115225347832
S 1921.2671887483586 561.3034159376282 1921.2671887483586 584.7341874629133
z" fill="none" stroke="none"></path>
<circle cx="0" cy="0" r="7.1172748321225425" fill="#d650ed">
  <animateMotion begin="-3.2054893339812596s" dur="10s" repeatCount="indefinite">
    <mpath xlink:href="#path41"></mpath>
  </animateMotion>
</circle><path id="path42" d="M 1701.3359483624588 422.5274916979672
c 0 22.285908104988223 -5.45293496185882 6.401271476964703 -11.854206438823523 6.401271476964703
S 1677.627535484812 444.8133998029554 1677.627535484812 422.5274916979672
s 5.45293496185882 -6.401271476964703 11.854206438823523 -6.401271476964703
S 1701.3359483624588 400.241583592979 1701.3359483624588 422.5274916979672
z" fill="none" stroke="none"></path>
<circle cx="0" cy="0" r="4.257343921079419" fill="#890d9f">
  <animateMotion begin="-6.2379368602620255s" dur="10s" repeatCount="indefinite">
    <mpath xlink:href="#path42"></mpath>
  </animateMotion>
</circle><path id="path43" d="M 2083.9757715160804 815.7329807770883
c 0 31.105786371414137 -7.610990282367288 8.934640766257253 -16.54563104862454 8.934640766257253
S 2050.884509418831 846.8387671485025 2050.884509418831 815.7329807770883
s 7.610990282367288 -8.934640766257253 16.54563104862454 -8.934640766257253
S 2083.9757715160804 784.6271944056741 2083.9757715160804 815.7329807770883
z" fill="none" stroke="none"></path>
<circle cx="0" cy="0" r="4.160826946197454" fill="#af4ebf">
  <animateMotion begin="-8.851359866685842s" dur="10s" repeatCount="indefinite">
    <mpath xlink:href="#path43"></mpath>
  </animateMotion>
</circle><path id="path44" d="M 2376.7028173170097 165.7473309888424
c 0 24.944752396893158 -6.103503246048325 7.164982071448034 -13.26848531749636 7.164982071448034
S 2350.1658466820168 190.69208338573557 2350.1658466820168 165.7473309888424
s 6.103503246048325 -7.164982071448034 13.26848531749636 -7.164982071448034
S 2376.7028173170097 140.80257859194924 2376.7028173170097 165.7473309888424
z" fill="none" stroke="none"></path>
<circle cx="0" cy="0" r="5.753749785739225" fill="#9c27b0">
  <animateMotion begin="-2.1338950483979247s" dur="10s" repeatCount="indefinite">
    <mpath xlink:href="#path44"></mpath>
  </animateMotion>
</circle><path id="path45" d="M 2049.4704530557874 403.797515511868
c 0 31.579058004990323 -7.7267907884550775 9.070580490795093 -16.79737127925017 9.070580490795093
S 2015.8757104972872 435.37657351685834 2015.8757104972872 403.797515511868
s 7.7267907884550775 -9.070580490795093 16.79737127925017 -9.070580490795093
S 2049.4704530557874 372.2184575068777 2049.4704530557874 403.797515511868
z" fill="none" stroke="none"></path>
<circle cx="0" cy="0" r="4.2082734382331415" fill="#a93cbb">
  <animateMotion begin="-8.513438024187616s" dur="10s" repeatCount="indefinite">
    <mpath xlink:href="#path45"></mpath>
  </animateMotion>
</circle><path id="path46" d="M 1426.6530328435988 169.61286199253558
c 0 31.269583399164276 -7.651068278518917 8.981688848696121 -16.63275712721504 8.981688848696121
S 1393.3875185891688 200.88244539169986 1393.3875185891688 169.61286199253558
s 7.651068278518917 -8.981688848696121 16.63275712721504 -8.981688848696121
S 1426.6530328435988 138.3432785933713 1426.6530328435988 169.61286199253558
z" fill="none" stroke="none"></path>
<circle cx="0" cy="0" r="5.637807477264496" fill="#d650ed">
  <animateMotion begin="-7.8697675049951155s" dur="10s" repeatCount="indefinite">
    <mpath xlink:href="#path46"></mpath>
  </animateMotion>
</circle><path id="path47" d="M 2003.6853228507462 690.498482408483
c 0 19.71591993983863 -4.824108070386048 5.663083386974926 -10.487191457360973 5.663083386974926
S 1982.7109399360243 710.2144023483216 1982.7109399360243 690.498482408483
s 4.824108070386048 -5.663083386974926 10.487191457360973 -5.663083386974926
S 2003.6853228507462 670.7825624686444 2003.6853228507462 690.498482408483
z" fill="none" stroke="none"></path>
<circle cx="0" cy="0" r="6.64471415263583" fill="#a93cbb">
  <animateMotion begin="-2.2858418992846063s" dur="10s" repeatCount="indefinite">
    <mpath xlink:href="#path47"></mpath>
  </animateMotion>
</circle><path id="path48" d="M 2464.2889932735056 515.210284191532
c 0 26.918534880925257 -6.5864500240561785 7.731919593457254 -14.318369617513433 7.731919593457254
S 2435.652254038479 542.1288190724572 2435.652254038479 515.210284191532
s 6.5864500240561785 -7.731919593457254 14.318369617513433 -7.731919593457254
S 2464.2889932735056 488.2917493106067 2464.2889932735056 515.210284191532
z" fill="none" stroke="none"></path>
<circle cx="0" cy="0" r="7.4490409920208815" fill="#af4ebf">
  <animateMotion begin="-7.0686779978132375s" dur="10s" repeatCount="indefinite">
    <mpath xlink:href="#path48"></mpath>
  </animateMotion>
</circle><path id="path49" d="M 207.982206793744 639.7705486775965
c 0 32.45117273997291 -7.940180564035924 9.321081531694347 -17.261262095730274 9.321081531694347
S 173.45968260228346 672.2217214175694 173.45968260228346 639.7705486775965
s 7.940180564035924 -9.321081531694347 17.261262095730274 -9.321081531694347
S 207.982206793744 607.3193759376236 207.982206793744 639.7705486775965
z" fill="none" stroke="none"></path>
<circle cx="0" cy="0" r="5.956395723320083" fill="#af4ebf">
  <animateMotion begin="-7.254663017678203s" dur="10s" repeatCount="indefinite">
    <mpath xlink:href="#path49"></mpath>
  </animateMotion>
</circle><path id="path50" d="M 87.11998069368278 69.76527705241683
c 0 29.927919066979005 -7.32278870787784 8.596317178813118 -15.919105886690959 8.596317178813118
S 55.28176892030086 99.69319611939584 55.28176892030086 69.76527705241683
s 7.32278870787784 -8.596317178813118 15.919105886690959 -8.596317178813118
S 87.11998069368278 39.83735798543783 87.11998069368278 69.76527705241683
z" fill="none" stroke="none"></path>
<circle cx="0" cy="0" r="6.779156284556873" fill="#d650ed">
  <animateMotion begin="-9.529414057479377s" dur="10s" repeatCount="indefinite">
    <mpath xlink:href="#path50"></mpath>
  </animateMotion>
</circle><path id="path51" d="M 1077.1451663950677 120.98856051440463
c 0 22.310522858923793 -5.458957720800502 6.4083416722440685 -11.86729939304457 6.4083416722440685
S 1053.4105676089787 143.29908337332841 1053.4105676089787 120.98856051440463
s 5.458957720800502 -6.4083416722440685 11.86729939304457 -6.4083416722440685
S 1077.1451663950677 98.67803765548084 1077.1451663950677 120.98856051440463
z" fill="none" stroke="none"></path>
<circle cx="0" cy="0" r="6.389974857157791" fill="#af4ebf">
  <animateMotion begin="-4.095541419025044s" dur="10s" repeatCount="indefinite">
    <mpath xlink:href="#path51"></mpath>
  </animateMotion>
</circle><path id="path52" d="M 155.94454685735914 331.15360496507196
c 0 20.639851942177227 -5.050176539043363 5.928468111050906 -10.97864465009427 5.928468111050906
S 133.98725755717058 351.7934569072492 133.98725755717058 331.15360496507196
s 5.050176539043363 -5.928468111050906 10.97864465009427 -5.928468111050906
S 155.94454685735914 310.5137530228947 155.94454685735914 331.15360496507196
z" fill="none" stroke="none"></path>
<circle cx="0" cy="0" r="4.878683604033761" fill="#af4ebf">
  <animateMotion begin="-5.9171569312809s" dur="10s" repeatCount="indefinite">
    <mpath xlink:href="#path52"></mpath>
  </animateMotion>
</circle><path id="path53" d="M 749.3488463520073 603.8426604183405
c 0 28.119224936508207 -6.880235888720093 8.076798651975762 -14.957034540695854 8.076798651975762
S 719.4347772706155 631.9618853548487 719.4347772706155 603.8426604183405
s 6.880235888720093 -8.076798651975762 14.957034540695854 -8.076798651975762
S 749.3488463520073 575.7234354818323 749.3488463520073 603.8426604183405
z" fill="none" stroke="none"></path>
<circle cx="0" cy="0" r="6.516219891845516" fill="#d650ed">
  <animateMotion begin="-8.886668763778701s" dur="10s" repeatCount="indefinite">
    <mpath xlink:href="#path53"></mpath>
  </animateMotion>
</circle><path id="path54" d="M 114.75068799873128 167.9389804076903
c 0 37.109999809781634 -9.08010633643593 10.659255264511748 -19.739361600947678 10.659255264511748
S 75.27196479683593 205.04898021747195 75.27196479683593 167.9389804076903
s 9.08010633643593 -10.659255264511748 19.739361600947678 -10.659255264511748
S 114.75068799873128 130.82898059790867 114.75068799873128 167.9389804076903
z" fill="none" stroke="none"></path>
<circle cx="0" cy="0" r="4.707339875210513" fill="#890d9f">
  <animateMotion begin="-9.237816140247064s" dur="10s" repeatCount="indefinite">
    <mpath xlink:href="#path54"></mpath>
  </animateMotion>
</circle><path id="path55" d="M 1424.1954112413143 242.43841497993694
c 0 21.35953178249436 -5.226268414865641 6.135184660929231 -11.361453075794872 6.135184660929231
S 1401.4725050897248 263.7979467624313 1401.4725050897248 242.43841497993694
s 5.226268414865641 -6.135184660929231 11.361453075794872 -6.135184660929231
S 1424.1954112413143 221.07888319744256 1424.1954112413143 242.43841497993694
z" fill="none" stroke="none"></path>
<circle cx="0" cy="0" r="7.154003404721676" fill="#d650ed">
  <animateMotion begin="-1.5997766689358905s" dur="10s" repeatCount="indefinite">
    <mpath xlink:href="#path55"></mpath>
  </animateMotion>
</circle><path id="path56" d="M 1269.8905018795717 119.70855258198434
c 0 35.17525742623867 -8.606711923441377 10.103531388387704 -18.710243311829082 10.103531388387704
S 1232.4700152559135 154.883810008223 1232.4700152559135 119.70855258198434
s 8.606711923441377 -10.103531388387704 18.710243311829082 -10.103531388387704
S 1269.8905018795717 84.53329515574566 1269.8905018795717 119.70855258198434
z" fill="none" stroke="none"></path>
<circle cx="0" cy="0" r="7.168887853594376" fill="#9c27b0">
  <animateMotion begin="-2.8912565052919392s" dur="10s" repeatCount="indefinite">
    <mpath xlink:href="#path56"></mpath>
  </animateMotion>
</circle><path id="path57" d="M 626.6418162176573 771.9821899378089
c 0 21.77478235585799 -5.327872278560997 6.254458761788997 -11.582331040349994 6.254458761788997
S 603.4771541369572 793.7569722936669 603.4771541369572 771.9821899378089
s 5.327872278560997 -6.254458761788997 11.582331040349994 -6.254458761788997
S 626.6418162176573 750.207407581951 626.6418162176573 771.9821899378089
z" fill="none" stroke="none"></path>
<circle cx="0" cy="0" r="6.3966910827347805" fill="#af4ebf">
  <animateMotion begin="-4.99866926310146s" dur="10s" repeatCount="indefinite">
    <mpath xlink:href="#path57"></mpath>
  </animateMotion>
</circle></g>
</svg>