<svg xmlns="http://www.w3.org/2000/svg" xmlns:xlink="http://www.w3.org/1999/xlink" style="margin:auto;/* background:#f1f2f3; */display:block;z-index:1;position:relative" width="2551" height="1022" preserveAspectRatio="xMidYMid" viewBox="0 0 2551 1022">
<g transform="translate(1275.5,511) scale(1,1) translate(-1275.5,-511)"><defs>
  <path id="path-lty7ffupoj-1" d="M-35 -35L35 -35L35 35L-35 35Z" fill="none" stroke="inherit" stroke-width="1.3157894736842106" transform="scale(0.38)"></path>
  <path id="path-lty7ffupoj-2" d="M0 -37A37 37 0 0 1 0 37A37 37 0 0 1 0 -37" fill="none" stroke="inherit" stroke-width="1.3157894736842106" transform="scale(0.38)"></path>
  <path id="path-lty7ffupoj-3" d="M0 -34.641L40 34.641L-40 34.641Z" fill="none" stroke="inherit" stroke-width="1.3157894736842106" transform="scale(0.38)"></path>
</defs><path id="path0" d="M 92.12670980726095 920.4168465889908
c 0 23.114455581803142 -5.655664663632684 6.639258518177499 -12.294923181810182 6.639258518177499
S 67.5368634436406 943.5313021707939 67.5368634436406 920.4168465889908
s 5.655664663632684 -6.639258518177499 12.294923181810182 -6.639258518177499
S 92.12670980726095 897.3023910071877 92.12670980726095 920.4168465889908
z" fill="none" stroke="none"></path>
<use xlink:href="#path-lty7ffupoj-3" x="0" y="0" stroke="#9c27b0">
  <animateMotion begin="-3.3254382598908454s" dur="7.711708357342036s" keyPoints="1;0" keyTimes="0;1" repeatCount="indefinite" calcMode="linear">
    <mpath xlink:href="#path0"></mpath>
  </animateMotion>
</use><path id="path1" d="M 111.42096650291137 274.79128194197693
c 0 33.61641370402041 -8.225292714813504 9.65577840434629 -17.88107111915979 9.65577840434629
S 75.6588242645918 308.40769564599736 75.6588242645918 274.79128194197693
s 8.225292714813504 -9.65577840434629 17.88107111915979 -9.65577840434629
S 111.42096650291137 241.17486823795653 111.42096650291137 274.79128194197693
z" fill="none" stroke="none"></path>
<use xlink:href="#path-lty7ffupoj-1" x="0" y="0" stroke="#9c27b0">
  <animateMotion begin="-0.4747108056808147s" dur="9.110346594638923s" keyPoints="1;0" keyTimes="0;1" repeatCount="indefinite" calcMode="linear">
    <mpath xlink:href="#path1"></mpath>
  </animateMotion>
</use><path id="path2" d="M 205.07406316767202 498.15164592418046
c 0 63.29365021727678 -15.486744202099635 18.180091019856096 -33.66683522195573 18.180091019856096
S 137.74039272376058 561.4452961414572 137.74039272376058 498.15164592418046
s 15.486744202099635 -18.180091019856096 33.66683522195573 -18.180091019856096
S 205.07406316767202 434.8579957069037 205.07406316767202 498.15164592418046
z" fill="none" stroke="none"></path>
<use xlink:href="#path-lty7ffupoj-2" x="0" y="0" stroke="#9c27b0">
  <animateMotion begin="-1.9317798041518215s" dur="14.209897069924908s" keyPoints="1;0" keyTimes="0;1" repeatCount="indefinite" calcMode="linear">
    <mpath xlink:href="#path2"></mpath>
  </animateMotion>
</use><path id="path3" d="M 210.38777679177656 535.5325497137478
c 0 34.99940545011792 -8.563684312262893 10.053020714395572 -18.616705026658465 10.053020714395572
S 173.1543667384596 570.5319551638657 173.1543667384596 535.5325497137478
s 8.563684312262893 -10.053020714395572 18.616705026658465 -10.053020714395572
S 210.38777679177656 500.5331442636299 210.38777679177656 535.5325497137478
z" fill="none" stroke="none"></path>
<use xlink:href="#path-lty7ffupoj-3" x="0" y="0" stroke="#0d0d0d">
  <animateMotion begin="-1.047642840890854s" dur="11.86869077687583s" keyPoints="0;1" keyTimes="0;1" repeatCount="indefinite" calcMode="linear">
    <mpath xlink:href="#path3"></mpath>
  </animateMotion>
</use><path id="path4" d="M 269.9082390306872 123.37497108612112
c 0 46.85240984444451 -11.46388751513004 13.457607082978743 -24.921494598108783 13.457607082978743
S 220.0652498344696 170.22738093056563 220.0652498344696 123.37497108612112
s 11.46388751513004 -13.457607082978743 24.921494598108783 -13.457607082978743
S 269.9082390306872 76.52256124167661 269.9082390306872 123.37497108612112
z" fill="none" stroke="none"></path>
<use xlink:href="#path-lty7ffupoj-1" x="0" y="0" stroke="#9c27b0">
  <animateMotion begin="-0.2569505311581198s" dur="13.23332099867763s" keyPoints="1;0" keyTimes="0;1" repeatCount="indefinite" calcMode="linear">
    <mpath xlink:href="#path4"></mpath>
  </animateMotion>
</use><path id="path5" d="M 339.85375817630876 594.450354239116
c 0 55.793984218831056 -13.65171954290547 16.025931637323815 -29.677651180229283 16.025931637323815
S 280.49845581585015 650.244338457947 280.49845581585015 594.450354239116
s 13.65171954290547 -16.025931637323815 29.677651180229283 -16.025931637323815
S 339.85375817630876 538.656370020285 339.85375817630876 594.450354239116
z" fill="none" stroke="none"></path>
<use xlink:href="#path-lty7ffupoj-1" x="0" y="0" stroke="#9c27b0">
  <animateMotion begin="-0.9017056032291738s" dur="13.671167618192175s" keyPoints="1;0" keyTimes="0;1" repeatCount="indefinite" calcMode="linear">
    <mpath xlink:href="#path5"></mpath>
  </animateMotion>
</use><path id="path6" d="M 379.5771661204888 324.0038265916531
c 0 38.48268455173077 -9.415976007338378 11.053537052092882 -20.469513059431257 11.053537052092882
S 338.63814000162625 362.48651114338384 338.63814000162625 324.0038265916531
s 9.415976007338378 -11.053537052092882 20.469513059431257 -11.053537052092882
S 379.5771661204888 285.5211420399223 379.5771661204888 324.0038265916531
z" fill="none" stroke="none"></path>
<use xlink:href="#path-lty7ffupoj-3" x="0" y="0" stroke="#9c27b0">
  <animateMotion begin="-3.7902363977834677s" dur="11.720847487984875s" keyPoints="1;0" keyTimes="0;1" repeatCount="indefinite" calcMode="linear">
    <mpath xlink:href="#path6"></mpath>
  </animateMotion>
</use><path id="path7" d="M 457.0567997998074 143.10478909253504
c 0 62.97229761157645 -15.4081153730453 18.08778761183579 -33.49590298488109 18.08778761183579
S 390.06499383004524 206.07708670411148 390.06499383004524 143.10478909253504
s 15.4081153730453 -18.08778761183579 33.49590298488109 -18.08778761183579
S 457.0567997998074 80.13249148095859 457.0567997998074 143.10478909253504
z" fill="none" stroke="none"></path>
<use xlink:href="#path-lty7ffupoj-1" x="0" y="0" stroke="#9c27b0">
  <animateMotion begin="-0.46081898196268734s" dur="13.029547849736492s" keyPoints="0;1" keyTimes="0;1" repeatCount="indefinite" calcMode="linear">
    <mpath xlink:href="#path7"></mpath>
  </animateMotion>
</use><path id="path8" d="M 509.4178568379583 240.6468046910229
c 0 63.29351039620731 -15.486709990561362 18.180050858485078 -33.66676084904644 18.180050858485078
S 442.0843351398654 303.9403150872302 442.0843351398654 240.6468046910229
s 15.486709990561362 -18.180050858485078 33.66676084904644 -18.180050858485078
S 509.4178568379583 177.3532942948156 509.4178568379583 240.6468046910229
z" fill="none" stroke="none"></path>
<use xlink:href="#path-lty7ffupoj-1" x="0" y="0" stroke="#0d0d0d">
  <animateMotion begin="-2.658148367271586s" dur="12.152964076014996s" keyPoints="0;1" keyTimes="0;1" repeatCount="indefinite" calcMode="linear">
    <mpath xlink:href="#path8"></mpath>
  </animateMotion>
</use><path id="path9" d="M 530.7826729096267 673.2042456877009
c 0 36.48512517049074 -8.927211477886031 10.479769995779256 -19.406981473665287 10.479769995779256
S 491.96870996229615 709.6893708581916 491.96870996229615 673.2042456877009
s 8.927211477886031 -10.479769995779256 19.406981473665287 -10.479769995779256
S 530.7826729096267 636.7191205172102 530.7826729096267 673.2042456877009
z" fill="none" stroke="none"></path>
<use xlink:href="#path-lty7ffupoj-1" x="0" y="0" stroke="#9c27b0">
  <animateMotion begin="-1.6928676356323513s" dur="12.647807553411972s" keyPoints="1;0" keyTimes="0;1" repeatCount="indefinite" calcMode="linear">
    <mpath xlink:href="#path9"></mpath>
  </animateMotion>
</use><path id="path10" d="M 591.5704284979852 884.3639941535434
c 0 57.66816790467007 -14.110296402206504 16.564260993894596 -30.6745573961011 16.564260993894596
S 530.2213137057829 942.0321620582135 530.2213137057829 884.3639941535434
s 14.110296402206504 -16.564260993894596 30.6745573961011 -16.564260993894596
S 591.5704284979852 826.6958262488733 591.5704284979852 884.3639941535434
z" fill="none" stroke="none"></path>
<use xlink:href="#path-lty7ffupoj-3" x="0" y="0" stroke="#0d0d0d">
  <animateMotion begin="-3.654205156226883s" dur="12.847353162840307s" keyPoints="0;1" keyTimes="0;1" repeatCount="indefinite" calcMode="linear">
    <mpath xlink:href="#path10"></mpath>
  </animateMotion>
</use><path id="path11" d="M 614.8646674568083 183.4038586883044
c 0 30.813786116313164 -7.539543411438327 8.850768352558037 -16.390311763996365 8.850768352558037
S 582.0840439288156 214.21764480461758 582.0840439288156 183.4038586883044
s 7.539543411438327 -8.850768352558037 16.390311763996365 -8.850768352558037
S 614.8646674568083 152.59007257199124 614.8646674568083 183.4038586883044
z" fill="none" stroke="none"></path>
<use xlink:href="#path-lty7ffupoj-2" x="0" y="0" stroke="#9c27b0">
  <animateMotion begin="-2.2435964703167817s" dur="15.030864322957894s" keyPoints="0;1" keyTimes="0;1" repeatCount="indefinite" calcMode="linear">
    <mpath xlink:href="#path11"></mpath>
  </animateMotion>
</use><path id="path12" d="M 718.164131992879 418.2546959990597
c 0 54.39300954797563 -13.308927868121696 15.623524019099385 -28.93245188722108 15.623524019099385
S 660.2992282184368 472.64770554703534 660.2992282184368 418.2546959990597
s 13.308927868121696 -15.623524019099385 28.93245188722108 -15.623524019099385
S 718.164131992879 363.8616864510841 718.164131992879 418.2546959990597
z" fill="none" stroke="none"></path>
<use xlink:href="#path-lty7ffupoj-3" x="0" y="0" stroke="#9c27b0">
  <animateMotion begin="-1.640079112281077s" dur="10.285709067265362s" keyPoints="1;0" keyTimes="0;1" repeatCount="indefinite" calcMode="linear">
    <mpath xlink:href="#path12"></mpath>
  </animateMotion>
</use><path id="path13" d="M 782.818894596399 650.4371661227468
c 0 52.08771689245081 -12.744866899216685 14.961365490384805 -27.70623238960149 14.961365490384805
S 727.406429817196 702.5248830151976 727.406429817196 650.4371661227468
s 12.744866899216685 -14.961365490384805 27.70623238960149 -14.961365490384805
S 782.818894596399 598.349449230296 782.818894596399 650.4371661227468
z" fill="none" stroke="none"></path>
<use xlink:href="#path-lty7ffupoj-1" x="0" y="0" stroke="#9c27b0">
  <animateMotion begin="-0.258546176792888s" dur="9.85402138838673s" keyPoints="0;1" keyTimes="0;1" repeatCount="indefinite" calcMode="linear">
    <mpath xlink:href="#path13"></mpath>
  </animateMotion>
</use><path id="path14" d="M 784.7081769826933 965.3999222837793
c 0 25.357054299595795 -6.204385626496843 7.2834092137136865 -13.48779484021053 7.2834092137136865
S 757.7325873022722 990.7569765833751 757.7325873022722 965.3999222837793
s 6.204385626496843 -7.2834092137136865 13.48779484021053 -7.2834092137136865
S 784.7081769826933 940.0428679841835 784.7081769826933 965.3999222837793
z" fill="none" stroke="none"></path>
<use xlink:href="#path-lty7ffupoj-1" x="0" y="0" stroke="#9c27b0">
  <animateMotion begin="-1.7323737547632496s" dur="13.95058695831171s" keyPoints="0;1" keyTimes="0;1" repeatCount="indefinite" calcMode="linear">
    <mpath xlink:href="#path14"></mpath>
  </animateMotion>
</use><path id="path15" d="M 844.9091870640391 843.2540187786992
c 0 30.84544050594695 -7.547288634433827 8.859860570857103 -16.407149205290928 8.859860570857103
S 812.0948886534572 874.0994592846462 812.0948886534572 843.2540187786992
s 7.547288634433827 -8.859860570857103 16.407149205290928 -8.859860570857103
S 844.9091870640391 812.4085782727523 844.9091870640391 843.2540187786992
z" fill="none" stroke="none"></path>
<use xlink:href="#path-lty7ffupoj-1" x="0" y="0" stroke="#9c27b0">
  <animateMotion begin="-3.7304704078171955s" dur="9.268349335373053s" keyPoints="0;1" keyTimes="0;1" repeatCount="indefinite" calcMode="linear">
    <mpath xlink:href="#path15"></mpath>
  </animateMotion>
</use><path id="path16" d="M 908.6520949015794 646.9190220146928
c 0 52.26806214924226 -12.788993930133744 15.013166787548311 -27.802160717682053 15.013166787548311
S 853.0477734662154 699.1870841639351 853.0477734662154 646.9190220146928
s 12.788993930133744 -15.013166787548311 27.802160717682053 -15.013166787548311
S 908.6520949015794 594.6509598654505 908.6520949015794 646.9190220146928
z" fill="none" stroke="none"></path>
<use xlink:href="#path-lty7ffupoj-1" x="0" y="0" stroke="#9c27b0">
  <animateMotion begin="-2.630738515850643s" dur="12.357526660447778s" keyPoints="0;1" keyTimes="0;1" repeatCount="indefinite" calcMode="linear">
    <mpath xlink:href="#path16"></mpath>
  </animateMotion>
</use><path id="path17" d="M 956.0331354726197 505.65922015329653
c 0 57.2732224927532 -14.01366082269493 16.450819226641876 -30.464480049336807 16.450819226641876
S 895.1041753739462 562.9324426460497 895.1041753739462 505.65922015329653
s 14.01366082269493 -16.450819226641876 30.464480049336807 -16.450819226641876
S 956.0331354726197 448.38599766054335 956.0331354726197 505.65922015329653
z" fill="none" stroke="none"></path>
<use xlink:href="#path-lty7ffupoj-1" x="0" y="0" stroke="#9c27b0">
  <animateMotion begin="-0.02518139591879243s" dur="14.591367036145245s" keyPoints="0;1" keyTimes="0;1" repeatCount="indefinite" calcMode="linear">
    <mpath xlink:href="#path17"></mpath>
  </animateMotion>
</use><path id="path18" d="M 1000.4972529910245 961.3960230358423
c 0 57.48091674822882 -14.064479629885774 16.510476087257214 -30.574955717142988 16.510476087257214
S 939.3473415567386 1018.876939784071 939.3473415567386 961.3960230358423
s 14.064479629885774 -16.510476087257214 30.574955717142988 -16.510476087257214
S 1000.4972529910245 903.9151062876135 1000.4972529910245 961.3960230358423
z" fill="none" stroke="none"></path>
<use xlink:href="#path-lty7ffupoj-2" x="0" y="0" stroke="#9c27b0">
  <animateMotion begin="-1.1165473102622765s" dur="14.66297356170073s" keyPoints="1;0" keyTimes="0;1" repeatCount="indefinite" calcMode="linear">
    <mpath xlink:href="#path18"></mpath>
  </animateMotion>
</use><path id="path19" d="M 1051.3475297940859 455.75238641589124
c 0 36.364211104536835 -8.897626121322842 10.445039359813773 -19.342665481136613 10.445039359813773
S 1012.6621988318126 492.11659752042806 1012.6621988318126 455.75238641589124
s 8.897626121322842 -10.445039359813773 19.342665481136613 -10.445039359813773
S 1051.3475297940859 419.3881753113544 1051.3475297940859 455.75238641589124
z" fill="none" stroke="none"></path>
<use xlink:href="#path-lty7ffupoj-1" x="0" y="0" stroke="#0d0d0d">
  <animateMotion begin="-1.7857655047782823s" dur="9.820976741360312s" keyPoints="0;1" keyTimes="0;1" repeatCount="indefinite" calcMode="linear">
    <mpath xlink:href="#path19"></mpath>
  </animateMotion>
</use><path id="path20" d="M 1102.341546033283 841.2955036759399
c 0 25.195384928623866 -6.164828227216478 7.236972266732388 -13.401800493948866 7.236972266732388
S 1075.5379450453852 866.4908886045638 1075.5379450453852 841.2955036759399
s 6.164828227216478 -7.236972266732388 13.401800493948866 -7.236972266732388
S 1102.341546033283 816.1001187473161 1102.341546033283 841.2955036759399
z" fill="none" stroke="none"></path>
<use xlink:href="#path-lty7ffupoj-3" x="0" y="0" stroke="#0d0d0d">
  <animateMotion begin="-1.6655035089906705s" dur="13.62231720111212s" keyPoints="1;0" keyTimes="0;1" repeatCount="indefinite" calcMode="linear">
    <mpath xlink:href="#path20"></mpath>
  </animateMotion>
</use><path id="path21" d="M 1157.2979122613276 538.6517477506663
c 0 47.83447967874514 -11.704181197990831 13.739690971554454 -25.443872169545287 13.739690971554454
S 1106.410167922237 586.4862274294114 1106.410167922237 538.6517477506663
s 11.704181197990831 -13.739690971554454 25.443872169545287 -13.739690971554454
S 1157.2979122613276 490.8172680719212 1157.2979122613276 538.6517477506663
z" fill="none" stroke="none"></path>
<use xlink:href="#path-lty7ffupoj-2" x="0" y="0" stroke="#9c27b0">
  <animateMotion begin="-3.4474088924133417s" dur="12.935433983514471s" keyPoints="0;1" keyTimes="0;1" repeatCount="indefinite" calcMode="linear">
    <mpath xlink:href="#path21"></mpath>
  </animateMotion>
</use><path id="path22" d="M 1223.5353983036298 57.0992113523255
c 0 51.52027632035309 -12.60602505710767 14.798377240952485 -27.404402298060155 14.798377240952485
S 1168.7265937075094 108.61948767267859 1168.7265937075094 57.0992113523255
s 12.60602505710767 -14.798377240952485 27.404402298060155 -14.798377240952485
S 1223.5353983036298 5.5789350319724065 1223.5353983036298 57.0992113523255
z" fill="none" stroke="none"></path>
<use xlink:href="#path-lty7ffupoj-3" x="0" y="0" stroke="#9c27b0">
  <animateMotion begin="-0.17183836923958098s" dur="11.369271210650792s" keyPoints="0;1" keyTimes="0;1" repeatCount="indefinite" calcMode="linear">
    <mpath xlink:href="#path22"></mpath>
  </animateMotion>
</use><path id="path23" d="M 1285.339310549217 447.21490722966695
c 0 22.561946125137787 -5.52047617955499 6.480558993390641 -12.001035172945631 6.480558993390641
S 1261.3372402033258 469.77685335480476 1261.3372402033258 447.21490722966695
s 5.52047617955499 -6.480558993390641 12.001035172945631 -6.480558993390641
S 1285.339310549217 424.65296110452914 1285.339310549217 447.21490722966695
z" fill="none" stroke="none"></path>
<use xlink:href="#path-lty7ffupoj-2" x="0" y="0" stroke="#0d0d0d">
  <animateMotion begin="-1.4764680273033646s" dur="8.101487726298139s" keyPoints="0;1" keyTimes="0;1" repeatCount="indefinite" calcMode="linear">
    <mpath xlink:href="#path23"></mpath>
  </animateMotion>
</use><path id="path24" d="M 1334.144980063886 71.02756941332083
c 0 45.48415115389132 -11.129100814250002 13.064596608032614 -24.193697422282618 13.064596608032614
S 1285.7575852193206 116.51172056721215 1285.7575852193206 71.02756941332083
s 11.129100814250002 -13.064596608032614 24.193697422282618 -13.064596608032614
S 1334.144980063886 25.543418259429515 1334.144980063886 71.02756941332083
z" fill="none" stroke="none"></path>
<use xlink:href="#path-lty7ffupoj-3" x="0" y="0" stroke="#9c27b0">
  <animateMotion begin="-0.4420064798301464s" dur="8.153443792028565s" keyPoints="1;0" keyTimes="0;1" repeatCount="indefinite" calcMode="linear">
    <mpath xlink:href="#path24"></mpath>
  </animateMotion>
</use><path id="path25" d="M 1378.1452685445888 264.39519788211294
c 0 30.498731869044843 -7.462455670085439 8.760274047491604 -16.222729717577042 8.760274047491604
S 1345.6998091094347 294.89392975115777 1345.6998091094347 264.39519788211294
s 7.462455670085439 -8.760274047491604 16.222729717577042 -8.760274047491604
S 1378.1452685445888 233.8964660130681 1378.1452685445888 264.39519788211294
z" fill="none" stroke="none"></path>
<use xlink:href="#path-lty7ffupoj-3" x="0" y="0" stroke="#9c27b0">
  <animateMotion begin="-1.586779153376251s" dur="12.013292451774644s" keyPoints="0;1" keyTimes="0;1" repeatCount="indefinite" calcMode="linear">
    <mpath xlink:href="#path25"></mpath>
  </animateMotion>
</use><path id="path26" d="M 1405.0124870595125 909.7895858257546
c 0 30.478941157436456 -7.457613261925941 8.754589481391323 -16.212202743317263 8.754589481391323
S 1372.588081572878 940.268526983191 1372.588081572878 909.7895858257546
s 7.457613261925941 -8.754589481391323 16.212202743317263 -8.754589481391323
S 1405.0124870595125 879.3106446683181 1405.0124870595125 909.7895858257546
z" fill="none" stroke="none"></path>
<use xlink:href="#path-lty7ffupoj-3" x="0" y="0" stroke="#9c27b0">
  <animateMotion begin="-1.0739579846881495s" dur="12.855930244543664s" keyPoints="0;1" keyTimes="0;1" repeatCount="indefinite" calcMode="linear">
    <mpath xlink:href="#path26"></mpath>
  </animateMotion>
</use><path id="path27" d="M 1489.734027095925 168.96830203496265
c 0 27.52178128532484 -6.734052867685864 7.905192496848624 -14.639245364534489 7.905192496848624
S 1460.4555363668562 196.49008332028748 1460.4555363668562 168.96830203496265
s 6.734052867685864 -7.905192496848624 14.639245364534489 -7.905192496848624
S 1489.734027095925 141.4465207496378 1489.734027095925 168.96830203496265
z" fill="none" stroke="none"></path>
<use xlink:href="#path-lty7ffupoj-1" x="0" y="0" stroke="#9c27b0">
  <animateMotion begin="-0.8699954387849472s" dur="11.990262352936517s" keyPoints="0;1" keyTimes="0;1" repeatCount="indefinite" calcMode="linear">
    <mpath xlink:href="#path27"></mpath>
  </animateMotion>
</use><path id="path28" d="M 1530.296417377641 969.2327338799959
c 0 56.23585103549126 -13.759835891662751 16.152850829343233 -29.912686721005986 16.152850829343233
S 1470.4710439356293 1025.468584915487 1470.4710439356293 969.2327338799959
s 13.759835891662751 -16.152850829343233 29.912686721005986 -16.152850829343233
S 1530.296417377641 912.9968828445046 1530.296417377641 969.2327338799959
z" fill="none" stroke="none"></path>
<use xlink:href="#path-lty7ffupoj-2" x="0" y="0" stroke="#0d0d0d">
  <animateMotion begin="-2.6808065853417986s" dur="12.252111154283881s" keyPoints="0;1" keyTimes="0;1" repeatCount="indefinite" calcMode="linear">
    <mpath xlink:href="#path28"></mpath>
  </animateMotion>
</use><path id="path29" d="M 1587.7145487317273 496.5477025808831
c 0 39.15936502849461 -9.581546762291234 11.247902720950579 -20.829449483241813 11.247902720950579
S 1546.0556497652435 535.7070676093776 1546.0556497652435 496.5477025808831
s 9.581546762291234 -11.247902720950579 20.829449483241813 -11.247902720950579
S 1587.7145487317273 457.38833755238846 1587.7145487317273 496.5477025808831
z" fill="none" stroke="none"></path>
<use xlink:href="#path-lty7ffupoj-2" x="0" y="0" stroke="#0d0d0d">
  <animateMotion begin="-1.6998245801019687s" dur="9.755263741367136s" keyPoints="1;0" keyTimes="0;1" repeatCount="indefinite" calcMode="linear">
    <mpath xlink:href="#path29"></mpath>
  </animateMotion>
</use><path id="path30" d="M 1621.4852807587722 366.82985927195307
c 0 39.89173907725061 -9.760744667837916 11.458265479635815 -21.21901014747373 11.458265479635815
S 1579.0472604638248 406.7215983492037 1579.0472604638248 366.82985927195307
s 9.760744667837916 -11.458265479635815 21.21901014747373 -11.458265479635815
S 1621.4852807587722 326.93812019470244 1621.4852807587722 366.82985927195307
z" fill="none" stroke="none"></path>
<use xlink:href="#path-lty7ffupoj-2" x="0" y="0" stroke="#9c27b0">
  <animateMotion begin="-1.892202169872263s" dur="8.290825598111791s" keyPoints="1;0" keyTimes="0;1" repeatCount="indefinite" calcMode="linear">
    <mpath xlink:href="#path30"></mpath>
  </animateMotion>
</use><path id="path31" d="M 1669.5177131099647 930.3578855936216
c 0 53.5468241931787 -13.101882515352234 15.380470778891754 -28.482353294243985 15.380470778891754
S 1612.5530065214768 983.9047097868004 1612.5530065214768 930.3578855936216
s 13.101882515352234 -15.380470778891754 28.482353294243985 -15.380470778891754
S 1669.5177131099647 876.8110614004429 1669.5177131099647 930.3578855936216
z" fill="none" stroke="none"></path>
<use xlink:href="#path-lty7ffupoj-3" x="0" y="0" stroke="#9c27b0">
  <animateMotion begin="-2.5942256823904692s" dur="11.272895329144289s" keyPoints="0;1" keyTimes="0;1" repeatCount="indefinite" calcMode="linear">
    <mpath xlink:href="#path31"></mpath>
  </animateMotion>
</use><path id="path32" d="M 1730.241369198505 423.1634260861546
c 0 48.92979817158067 -11.97218465900378 14.054303730134874 -26.026488389138652 14.054303730134874
S 1678.1883924202277 472.09322425773524 1678.1883924202277 423.1634260861546
s 11.97218465900378 -14.054303730134874 26.026488389138652 -14.054303730134874
S 1730.241369198505 374.2336279145739 1730.241369198505 423.1634260861546
z" fill="none" stroke="none"></path>
<use xlink:href="#path-lty7ffupoj-3" x="0" y="0" stroke="#0d0d0d">
  <animateMotion begin="-3.1776090711749827s" dur="12.780093033092847s" keyPoints="0;1" keyTimes="0;1" repeatCount="indefinite" calcMode="linear">
    <mpath xlink:href="#path32"></mpath>
  </animateMotion>
</use><path id="path33" d="M 1807.7218246953514 526.0024281542071
c 0 52.09124671388098 -12.745730578928322 14.962379375263685 -27.708109954192008 14.962379375263685
S 1752.3056047869675 578.0936748680881 1752.3056047869675 526.0024281542071
s 12.745730578928322 -14.962379375263685 27.708109954192008 -14.962379375263685
S 1807.7218246953514 473.9111814403261 1807.7218246953514 526.0024281542071
z" fill="none" stroke="none"></path>
<use xlink:href="#path-lty7ffupoj-1" x="0" y="0" stroke="#0d0d0d">
  <animateMotion begin="-1.9329635305674835s" dur="10.149944736919347s" keyPoints="0;1" keyTimes="0;1" repeatCount="indefinite" calcMode="linear">
    <mpath xlink:href="#path33"></mpath>
  </animateMotion>
</use><path id="path34" d="M 1862.9700685245639 187.20725726979674
c 0 42.7156893428427 -10.451711222184914 12.269400130390988 -22.721111352575903 12.269400130390988
S 1817.527845819412 229.92294661263944 1817.527845819412 187.20725726979674
s 10.451711222184914 -12.269400130390988 22.721111352575903 -12.269400130390988
S 1862.9700685245639 144.49156792695405 1862.9700685245639 187.20725726979674
z" fill="none" stroke="none"></path>
<use xlink:href="#path-lty7ffupoj-2" x="0" y="0" stroke="#9c27b0">
  <animateMotion begin="-1.9915364373210265s" dur="11.50647777881574s" keyPoints="1;0" keyTimes="0;1" repeatCount="indefinite" calcMode="linear">
    <mpath xlink:href="#path34"></mpath>
  </animateMotion>
</use><path id="path35" d="M 1879.0161013784266 843.7747477142617
c 0 44.847166330507704 -10.973242825549756 12.881632882167107 -23.854875707716864 12.881632882167107
S 1831.3063499629927 888.6219140447694 1831.3063499629927 843.7747477142617
s 10.973242825549756 -12.881632882167107 23.854875707716864 -12.881632882167107
S 1879.0161013784266 798.927581383754 1879.0161013784266 843.7747477142617
z" fill="none" stroke="none"></path>
<use xlink:href="#path-lty7ffupoj-3" x="0" y="0" stroke="#9c27b0">
  <animateMotion begin="-1.2707825160681743s" dur="13.071831968078458s" keyPoints="0;1" keyTimes="0;1" repeatCount="indefinite" calcMode="linear">
    <mpath xlink:href="#path35"></mpath>
  </animateMotion>
</use><path id="path36" d="M 1949.552203316971 263.27669725847744
c 0 33.589730561885126 -8.218763860886787 9.64811409756275 -17.866877958449535 9.64811409756275
S 1913.8184474000718 296.86642782036256 1913.8184474000718 263.27669725847744
s 8.218763860886787 -9.64811409756275 17.866877958449535 -9.64811409756275
S 1949.552203316971 229.68696669659232 1949.552203316971 263.27669725847744
z" fill="none" stroke="none"></path>
<use xlink:href="#path-lty7ffupoj-1" x="0" y="0" stroke="#9c27b0">
  <animateMotion begin="-1.688949361308964s" dur="12.206627672977575s" keyPoints="0;1" keyTimes="0;1" repeatCount="indefinite" calcMode="linear">
    <mpath xlink:href="#path36"></mpath>
  </animateMotion>
</use><path id="path37" d="M 1999.764946124126 168.72329935692258
c 0 44.55721187550492 -10.902296522729925 12.79834809190035 -23.700644614630274 12.79834809190035
S 1952.3636568948657 213.2805112324275 1952.3636568948657 168.72329935692258
s 10.902296522729925 -12.79834809190035 23.700644614630274 -12.79834809190035
S 1999.764946124126 124.16608748141766 1999.764946124126 168.72329935692258
z" fill="none" stroke="none"></path>
<use xlink:href="#path-lty7ffupoj-2" x="0" y="0" stroke="#9c27b0">
  <animateMotion begin="-2.884516558596935s" dur="13.489590322546483s" keyPoints="0;1" keyTimes="0;1" repeatCount="indefinite" calcMode="linear">
    <mpath xlink:href="#path37"></mpath>
  </animateMotion>
</use><path id="path38" d="M 2042.7549827885684 120.64847795681762
c 0 55.370709066716415 -13.548152218451886 15.904352604269608 -29.452504822721494 15.904352604269608
S 1983.8499731431255 176.01918702353402 1983.8499731431255 120.64847795681762
s 13.548152218451886 -15.904352604269608 29.452504822721494 -15.904352604269608
S 2042.7549827885684 65.2777688901012 2042.7549827885684 120.64847795681762
z" fill="none" stroke="none"></path>
<use xlink:href="#path-lty7ffupoj-3" x="0" y="0" stroke="#0d0d0d">
  <animateMotion begin="-3.4153877283608978s" dur="14.449789150636995s" keyPoints="1;0" keyTimes="0;1" repeatCount="indefinite" calcMode="linear">
    <mpath xlink:href="#path38"></mpath>
  </animateMotion>
</use><path id="path39" d="M 2115.6319140063774 149.09509283331326
c 0 57.55451799067164 -14.082488444526037 16.531616869661004 -30.614105314187043 16.531616869661004
S 2054.4037033780037 206.64961082398491 2054.4037033780037 149.09509283331326
s 14.082488444526037 -16.531616869661004 30.614105314187043 -16.531616869661004
S 2115.6319140063774 91.54057484264162 2115.6319140063774 149.09509283331326
z" fill="none" stroke="none"></path>
<use xlink:href="#path-lty7ffupoj-3" x="0" y="0" stroke="#9c27b0">
  <animateMotion begin="-3.537284576265796s" dur="14.130197273741686s" keyPoints="1;0" keyTimes="0;1" repeatCount="indefinite" calcMode="linear">
    <mpath xlink:href="#path39"></mpath>
  </animateMotion>
</use><path id="path40" d="M 2135.787052593293 116.54497918974286
c 0 32.67449035601818 -7.994822108387426 9.38522595332437 -17.380048061711797 9.38522595332437
S 2101.026956469869 149.21946954576106 2101.026956469869 116.54497918974286
s 7.994822108387426 -9.38522595332437 17.380048061711797 -9.38522595332437
S 2135.787052593293 83.87048883372468 2135.787052593293 116.54497918974286
z" fill="none" stroke="none"></path>
<use xlink:href="#path-lty7ffupoj-3" x="0" y="0" stroke="#0d0d0d">
  <animateMotion begin="-3.3467379597668696s" dur="12.79569672678406s" keyPoints="0;1" keyTimes="0;1" repeatCount="indefinite" calcMode="linear">
    <mpath xlink:href="#path40"></mpath>
  </animateMotion>
</use><path id="path41" d="M 2204.7840116221337 293.1121718124042
c 0 27.55405888784398 -6.741950578940547 7.914463723104122 -14.65641430204467 7.914463723104122
S 2175.4711830180445 320.6662307002482 2175.4711830180445 293.1121718124042
s 6.741950578940547 -7.914463723104122 14.65641430204467 -7.914463723104122
S 2204.7840116221337 265.5581129245602 2204.7840116221337 293.1121718124042
z" fill="none" stroke="none"></path>
<use xlink:href="#path-lty7ffupoj-3" x="0" y="0" stroke="#9c27b0">
  <animateMotion begin="-2.761172125343417s" dur="11.927869318980058s" keyPoints="1;0" keyTimes="0;1" repeatCount="indefinite" calcMode="linear">
    <mpath xlink:href="#path41"></mpath>
  </animateMotion>
</use><path id="path42" d="M 2277.9267797327398 109.88207370718646
c 0 37.59684335605494 -9.199227629673016 10.79909330439876 -19.998320934071778 10.79909330439876
S 2237.9301378645964 147.4789170632414 2237.9301378645964 109.88207370718646
s 9.199227629673016 -10.79909330439876 19.998320934071778 -10.79909330439876
S 2277.9267797327398 72.28523035113153 2277.9267797327398 109.88207370718646
z" fill="none" stroke="none"></path>
<use xlink:href="#path-lty7ffupoj-3" x="0" y="0" stroke="#9c27b0">
  <animateMotion begin="-1.0460574451009281s" dur="15.253681930348908s" keyPoints="0;1" keyTimes="0;1" repeatCount="indefinite" calcMode="linear">
    <mpath xlink:href="#path42"></mpath>
  </animateMotion>
</use><path id="path43" d="M 2321.1998371570553 496.47317117160964
c 0 53.62494252874217 -13.120996576181593 15.402909024213175 -28.52390560039477 15.402909024213175
S 2264.152025956266 550.0981137003519 2264.152025956266 496.47317117160964
s 13.120996576181593 -15.402909024213175 28.52390560039477 -15.402909024213175
S 2321.1998371570553 442.84822864286747 2321.1998371570553 496.47317117160964
z" fill="none" stroke="none"></path>
<use xlink:href="#path-lty7ffupoj-1" x="0" y="0" stroke="#9c27b0">
  <animateMotion begin="-3.5263163344419612s" dur="9.89420784076819s" keyPoints="1;0" keyTimes="0;1" repeatCount="indefinite" calcMode="linear">
    <mpath xlink:href="#path43"></mpath>
  </animateMotion>
</use><path id="path44" d="M 2333.74089338811 571.1412242340857
c 0 21.965148925247306 -5.374451332773276 6.309138521081674 -11.68358985385495 6.309138521081674
S 2310.3737136804007 593.106373159333 2310.3737136804007 571.1412242340857
s 5.374451332773276 -6.309138521081674 11.68358985385495 -6.309138521081674
S 2333.74089338811 549.1760753088384 2333.74089338811 571.1412242340857
z" fill="none" stroke="none"></path>
<use xlink:href="#path-lty7ffupoj-2" x="0" y="0" stroke="#9c27b0">
  <animateMotion begin="-0.8388500665669245s" dur="12.51586915272766s" keyPoints="1;0" keyTimes="0;1" repeatCount="indefinite" calcMode="linear">
    <mpath xlink:href="#path44"></mpath>
  </animateMotion>
</use><path id="path45" d="M 2408.552000935716 48.726502939225725
c 0 61.87450813692032 -15.139507310097523 17.772465103157966 -32.91197241325549 17.772465103157966
S 2342.7280561092048 110.60101107614605 2342.7280561092048 48.726502939225725
s 15.139507310097523 -17.772465103157966 32.91197241325549 -17.772465103157966
S 2408.552000935716 -13.148005197694594 2408.552000935716 48.726502939225725
z" fill="none" stroke="none"></path>
<use xlink:href="#path-lty7ffupoj-3" x="0" y="0" stroke="#0d0d0d">
  <animateMotion begin="-1.104802750497415s" dur="12.500830850758401s" keyPoints="0;1" keyTimes="0;1" repeatCount="indefinite" calcMode="linear">
    <mpath xlink:href="#path45"></mpath>
  </animateMotion>
</use><path id="path46" d="M 2474.587315194902 743.9667702038516
c 0 55.390387109914556 -13.552967058808878 15.910004808166947 -29.462971866975828 15.910004808166947
S 2415.6613714609507 799.3571573137662 2415.6613714609507 743.9667702038516
s 13.552967058808878 -15.910004808166947 29.462971866975828 -15.910004808166947
S 2474.587315194902 688.5763830939371 2474.587315194902 743.9667702038516
z" fill="none" stroke="none"></path>
<use xlink:href="#path-lty7ffupoj-1" x="0" y="0" stroke="#9c27b0">
  <animateMotion begin="-0.9018464203273974s" dur="8.361122485539225s" keyPoints="0;1" keyTimes="0;1" repeatCount="indefinite" calcMode="linear">
    <mpath xlink:href="#path46"></mpath>
  </animateMotion>
</use><path id="path47" d="M 2523.971444911614 210.1328263584164
c 0 29.29750548495535 -7.168538576106096 8.415240937168027 -15.583779513274123 8.415240937168027
S 2492.8038858850655 239.43033184337173 2492.8038858850655 210.1328263584164
s 7.168538576106096 -8.415240937168027 15.583779513274123 -8.415240937168027
S 2523.971444911614 180.83532087346106 2523.971444911614 210.1328263584164
z" fill="none" stroke="none"></path>
<use xlink:href="#path-lty7ffupoj-1" x="0" y="0" stroke="#9c27b0">
  <animateMotion begin="-1.0813335595640794s" dur="9.825961064289448s" keyPoints="1;0" keyTimes="0;1" repeatCount="indefinite" calcMode="linear">
    <mpath xlink:href="#path47"></mpath>
  </animateMotion>
</use></g>
</svg>