<svg width="96" height="138" viewBox="0 0 96 138" fill="none" xmlns="http://www.w3.org/2000/svg">
<path d="M7.33984 123.707H12.7891C13.2422 123.707 13.6367 123.605 13.9727 123.402C14.3164 123.191 14.582 122.895 14.7695 122.512C14.9648 122.129 15.0625 121.688 15.0625 121.188C15.0625 120.68 14.9688 120.234 14.7812 119.852C14.5938 119.469 14.3281 119.172 13.9844 118.961C13.6406 118.75 13.2422 118.645 12.7891 118.645H7.33984V115.961H12.707C13.7461 115.961 14.6602 116.18 15.4492 116.617C16.2383 117.047 16.8516 117.656 17.2891 118.445C17.7266 119.234 17.9453 120.148 17.9453 121.188C17.9453 122.227 17.7266 123.141 17.2891 123.93C16.8516 124.711 16.2383 125.316 15.4492 125.746C14.6602 126.176 13.7461 126.391 12.707 126.391H7.33984V123.707ZM5.99219 115.961H8.79297V133H5.99219V115.961ZM23.4531 133H20.5938V115.961H23.4531V133ZM33.0742 133.176C31.8633 133.176 30.7969 132.918 29.875 132.402C28.9531 131.879 28.2383 131.145 27.7305 130.199C27.2227 129.246 26.9688 128.145 26.9688 126.895V122.066C26.9688 120.816 27.2227 119.719 27.7305 118.773C28.2383 117.82 28.9531 117.086 29.875 116.57C30.7969 116.047 31.8633 115.785 33.0742 115.785C34.2852 115.785 35.3516 116.047 36.2734 116.57C37.1953 117.086 37.9102 117.82 38.418 118.773C38.9258 119.719 39.1797 120.816 39.1797 122.066V126.895C39.1797 128.145 38.9258 129.246 38.418 130.199C37.9102 131.145 37.1953 131.879 36.2734 132.402C35.3516 132.918 34.2852 133.176 33.0742 133.176ZM33.0742 130.398C33.7148 130.398 34.2773 130.258 34.7617 129.977C35.2539 129.695 35.6328 129.297 35.8984 128.781C36.1641 128.258 36.2969 127.656 36.2969 126.977V121.984C36.2969 121.305 36.1641 120.707 35.8984 120.191C35.6328 119.668 35.2539 119.266 34.7617 118.984C34.2773 118.703 33.7148 118.562 33.0742 118.562C32.4336 118.562 31.8672 118.703 31.375 118.984C30.8906 119.266 30.5156 119.668 30.25 120.191C29.9844 120.707 29.8516 121.305 29.8516 121.984V126.977C29.8516 127.656 29.9844 128.258 30.25 128.781C30.5156 129.297 30.8906 129.695 31.375 129.977C31.8672 130.258 32.4336 130.398 33.0742 130.398ZM42.5781 115.961H45.625L52.9609 129.074L52.6797 129.379V115.961H55.3984V132.988H52.3281L45.0156 120.074L45.2969 119.77V132.988H42.5781V115.961ZM59.3828 115.961H62.1836V133H59.3828V115.961ZM60.543 130.316H70.5625V133H60.543V130.316ZM60.543 123.203H69.2734V125.875H60.543V123.203ZM60.543 115.961H70.5625V118.645H60.543V115.961Z" fill="#2B2B2B"/>
<path d="M89 31C89 43.7025 78.2548 54 65 54" stroke="#2B2B2B" stroke-width="14"/>
<path d="M66 7C78.7025 7 89 17.7452 89 31" stroke="#2B2B2B" stroke-width="14"/>
<rect x="13" y="14" width="14" height="87" fill="#D9D9D9"/>
<rect x="44" y="14" width="14" height="87" fill="#2B2B2B"/>
<rect y="14" width="14" height="66" transform="rotate(-90 0 14)" fill="#2B2B2B"/>
<rect width="27" height="14" fill="#FF9898"/>
<rect x="13" y="14" width="14" height="87" fill="#F66F6F"/>
</svg>
