<svg width="131" height="159" viewBox="0 0 131 159" fill="none" xmlns="http://www.w3.org/2000/svg">
<path d="M129.871 24H127.48V9.5625L125.055 11.0508V8.57812L127.48 6.96094H129.871V24Z" fill="#1B1B1B"/>
<path d="M114 56C114 68.7025 103.255 79 90 79" stroke="#2B2B2B" stroke-width="14"/>
<path d="M30 32C17.2975 32 7 21.2548 7 8" stroke="#2B2B2B" stroke-width="14"/>
<path d="M91 32C103.703 32 114 42.7452 114 56" stroke="#2B2B2B" stroke-width="14"/>
<rect x="38" y="39" width="14" height="87" fill="#1B1B1B"/>
<rect x="69" y="39" width="14" height="87" fill="#1B1B1B"/>
<rect x="28" y="39" width="14" height="63" transform="rotate(-90 28 39)" fill="#2B2B2B"/>
<path d="M31.3398 144.707H36.7891C37.2422 144.707 37.6367 144.605 37.9727 144.402C38.3164 144.191 38.582 143.895 38.7695 143.512C38.9648 143.129 39.0625 142.688 39.0625 142.188C39.0625 141.68 38.9688 141.234 38.7812 140.852C38.5938 140.469 38.3281 140.172 37.9844 139.961C37.6406 139.75 37.2422 139.645 36.7891 139.645H31.3398V136.961H36.707C37.7461 136.961 38.6602 137.18 39.4492 137.617C40.2383 138.047 40.8516 138.656 41.2891 139.445C41.7266 140.234 41.9453 141.148 41.9453 142.188C41.9453 143.227 41.7266 144.141 41.2891 144.93C40.8516 145.711 40.2383 146.316 39.4492 146.746C38.6602 147.176 37.7461 147.391 36.707 147.391H31.3398V144.707ZM29.9922 136.961H32.793V154H29.9922V136.961ZM47.4531 154H44.5938V136.961H47.4531V154ZM57.0742 154.176C55.8633 154.176 54.7969 153.918 53.875 153.402C52.9531 152.879 52.2383 152.145 51.7305 151.199C51.2227 150.246 50.9688 149.145 50.9688 147.895V143.066C50.9688 141.816 51.2227 140.719 51.7305 139.773C52.2383 138.82 52.9531 138.086 53.875 137.57C54.7969 137.047 55.8633 136.785 57.0742 136.785C58.2852 136.785 59.3516 137.047 60.2734 137.57C61.1953 138.086 61.9102 138.82 62.418 139.773C62.9258 140.719 63.1797 141.816 63.1797 143.066V147.895C63.1797 149.145 62.9258 150.246 62.418 151.199C61.9102 152.145 61.1953 152.879 60.2734 153.402C59.3516 153.918 58.2852 154.176 57.0742 154.176ZM57.0742 151.398C57.7148 151.398 58.2773 151.258 58.7617 150.977C59.2539 150.695 59.6328 150.297 59.8984 149.781C60.1641 149.258 60.2969 148.656 60.2969 147.977V142.984C60.2969 142.305 60.1641 141.707 59.8984 141.191C59.6328 140.668 59.2539 140.266 58.7617 139.984C58.2773 139.703 57.7148 139.562 57.0742 139.562C56.4336 139.562 55.8672 139.703 55.375 139.984C54.8906 140.266 54.5156 140.668 54.25 141.191C53.9844 141.707 53.8516 142.305 53.8516 142.984V147.977C53.8516 148.656 53.9844 149.258 54.25 149.781C54.5156 150.297 54.8906 150.695 55.375 150.977C55.8672 151.258 56.4336 151.398 57.0742 151.398ZM66.5781 136.961H69.625L76.9609 150.074L76.6797 150.379V136.961H79.3984V153.988H76.3281L69.0156 141.074L69.2969 140.77V153.988H66.5781V136.961ZM83.3828 136.961H86.1836V154H83.3828V136.961ZM84.543 151.316H94.5625V154H84.543V151.316ZM84.543 144.203H93.2734V146.875H84.543V144.203ZM84.543 136.961H94.5625V139.645H84.543V136.961Z" fill="#2B2B2B"/>
</svg>
