<svg width="96" height="144" viewBox="0 0 96 144" fill="none" xmlns="http://www.w3.org/2000/svg">
<path d="M8.33984 129.707H13.7891C14.2422 129.707 14.6367 129.605 14.9727 129.402C15.3164 129.191 15.582 128.895 15.7695 128.512C15.9648 128.129 16.0625 127.688 16.0625 127.188C16.0625 126.68 15.9688 126.234 15.7812 125.852C15.5938 125.469 15.3281 125.172 14.9844 124.961C14.6406 124.75 14.2422 124.645 13.7891 124.645H8.33984V121.961H13.707C14.7461 121.961 15.6602 122.18 16.4492 122.617C17.2383 123.047 17.8516 123.656 18.2891 124.445C18.7266 125.234 18.9453 126.148 18.9453 127.188C18.9453 128.227 18.7266 129.141 18.2891 129.93C17.8516 130.711 17.2383 131.316 16.4492 131.746C15.6602 132.176 14.7461 132.391 13.707 132.391H8.33984V129.707ZM6.99219 121.961H9.79297V139H6.99219V121.961ZM24.4531 139H21.5938V121.961H24.4531V139ZM34.0742 139.176C32.8633 139.176 31.7969 138.918 30.875 138.402C29.9531 137.879 29.2383 137.145 28.7305 136.199C28.2227 135.246 27.9688 134.145 27.9688 132.895V128.066C27.9688 126.816 28.2227 125.719 28.7305 124.773C29.2383 123.82 29.9531 123.086 30.875 122.57C31.7969 122.047 32.8633 121.785 34.0742 121.785C35.2852 121.785 36.3516 122.047 37.2734 122.57C38.1953 123.086 38.9102 123.82 39.418 124.773C39.9258 125.719 40.1797 126.816 40.1797 128.066V132.895C40.1797 134.145 39.9258 135.246 39.418 136.199C38.9102 137.145 38.1953 137.879 37.2734 138.402C36.3516 138.918 35.2852 139.176 34.0742 139.176ZM34.0742 136.398C34.7148 136.398 35.2773 136.258 35.7617 135.977C36.2539 135.695 36.6328 135.297 36.8984 134.781C37.1641 134.258 37.2969 133.656 37.2969 132.977V127.984C37.2969 127.305 37.1641 126.707 36.8984 126.191C36.6328 125.668 36.2539 125.266 35.7617 124.984C35.2773 124.703 34.7148 124.562 34.0742 124.562C33.4336 124.562 32.8672 124.703 32.375 124.984C31.8906 125.266 31.5156 125.668 31.25 126.191C30.9844 126.707 30.8516 127.305 30.8516 127.984V132.977C30.8516 133.656 30.9844 134.258 31.25 134.781C31.5156 135.297 31.8906 135.695 32.375 135.977C32.8672 136.258 33.4336 136.398 34.0742 136.398ZM43.5781 121.961H46.625L53.9609 135.074L53.6797 135.379V121.961H56.3984V138.988H53.3281L46.0156 126.074L46.2969 125.77V138.988H43.5781V121.961ZM60.3828 121.961H63.1836V139H60.3828V121.961ZM61.543 136.316H71.5625V139H61.543V136.316ZM61.543 129.203H70.2734V131.875H61.543V129.203ZM61.543 121.961H71.5625V124.645H61.543V121.961Z" fill="white"/>
<path d="M89 31C89 43.7025 78.2548 54 65 54" stroke="#D9D9D9" stroke-width="14"/>
<path d="M66 7C78.7025 7 89 17.7452 89 31" stroke="#D9D9D9" stroke-width="14"/>
<rect x="13" y="14" width="14" height="87" fill="#D9D9D9"/>
<rect x="44" y="14" width="14" height="87" fill="#D9D9D9"/>
<rect y="14" width="14" height="66" transform="rotate(-90 0 14)" fill="#D9D9D9"/>
<rect width="27" height="14" fill="#FF9898"/>
<rect x="13" y="14" width="14" height="87" fill="#F66F6F"/>
</svg>
